<svg width="2581" height="585" viewBox="0 0 2581 585" fill="none" xmlns="http://www.w3.org/2000/svg">
<g clip-path="url(#clip0_94_4736)">
<mask id="mask0_94_4736" style="mask-type:alpha" maskUnits="userSpaceOnUse" x="-152" y="0" width="2886" height="585">
<path d="M-152 0H2734V585H-152V0Z" fill="url(#paint0_radial_94_4736)"/>
</mask>
<g mask="url(#mask0_94_4736)">
<path d="M2321.65 125.125C2309.85 119.808 2298.65 113.389 2287.14 107.571C2273.74 100.751 2258.64 96.9392 2244.73 101.152C2226.13 106.669 2205.32 106.468 2191.32 99.848C2164.41 87.1094 2134.8 87.9118 2108.4 75.8754C2099.09 71.6626 2089.49 72.8663 2080.49 80.2888C2067.89 90.8206 2051.08 82.7964 2036.48 88.0122C2029.27 90.5198 2030.07 77.5806 2026.37 72.2645C2022.37 66.5472 2014.07 64.1399 2009.97 66.2463C1989.16 77.0791 1969.86 62.3344 1949.85 64.3405C1948.65 59.8268 1947.45 55.2129 1946.25 50.6992C1944.35 36.6567 1904.24 18.2008 1891.84 27.5291C1879.23 36.8573 1866.13 38.8634 1851.63 41.371C1836.52 43.9789 1819.72 44.1795 1808.62 59.6262C1801.91 68.9545 1780.81 59.225 1779.81 78.9848C1768.1 74.07 1757.8 83.3982 1746.5 82.0942C1744.9 80.4894 1743.3 78.9848 1741.7 77.3799C1741.7 77.3799 1741.7 77.4803 1741.6 77.4803C1741.6 77.38 1741.6 77.38 1741.6 77.2797C1736.9 72.3648 1732.09 65.2432 1724.79 72.9666C1715.29 83.0973 1705.39 93.8297 1718.39 109.477C1681.08 98.2431 1647.77 109.778 1616.46 121.814C1601.86 127.432 1604.86 115.094 1597.06 111.584C1596.46 126.228 1588.56 132.346 1576.15 133.048C1580.05 124.924 1578.75 118.605 1569.75 114.894C1551.55 107.27 1533.64 98.4437 1514.84 92.3252C1497.43 86.7082 1454.42 102.456 1446.42 116.298C1436.32 133.951 1424.41 149.498 1406.11 159.328C1395.2 165.146 1394.1 174.474 1397.4 185.106C1400.91 196.139 1407.81 196.34 1417.31 192.027C1427.21 187.513 1428.21 196.942 1431.21 202.659C1431.81 203.863 1431.71 206.17 1430.91 206.972C1425.21 213.091 1424.01 204.063 1420.31 203.562C1415.51 202.86 1412.91 206.07 1412.81 210.282C1412.31 233.854 1391.2 235.258 1377.1 244.385C1375 258.528 1358.59 255.62 1352.19 264.847C1357.59 272.37 1366.5 278.288 1361.4 289.121C1358.59 295.139 1352.49 293.635 1347.29 294.537C1339.49 295.841 1327.29 286.814 1325.29 302.361C1323.68 314.698 1319.08 328.941 1335.99 335.662C1351.39 336.063 1362.3 331.75 1371.1 316.504C1386.9 289.422 1408.91 287.416 1436.32 306.975C1443.02 311.79 1449.02 317.808 1455.32 323.224C1462.02 303.565 1436.22 301.86 1434.11 278.288C1448.22 293.434 1466.42 294.036 1468.92 314.097C1473.43 319.212 1477.43 324.528 1478.73 331.549C1483.63 331.75 1488.13 330.245 1488.93 325.03C1489.83 319.312 1488.23 311.388 1496.83 312.191C1505.33 312.993 1504.33 321.92 1505.93 328.039C1514.04 337.568 1525.74 334.358 1535.84 336.765C1541.44 338.069 1551.95 331.75 1551.45 343.887C1551.05 352.914 1548.75 363.145 1537.04 364.549C1527.94 365.653 1518.74 365.552 1509.63 364.85C1495.03 363.747 1482.43 352.713 1465.22 366.154C1458.72 371.169 1432.01 361.841 1425.41 344.489C1421.21 333.756 1416.01 332.552 1407.01 332.452C1382.2 332.352 1359.39 342.182 1335.39 345.792C1321.78 353.716 1321.98 371.069 1310.88 380.999C1271.57 416.206 1274.27 467.361 1316.18 497.953C1335.19 511.895 1354.29 502.768 1373.4 499.558C1389.1 496.85 1419.51 506.88 1417.81 516.309C1414.41 534.865 1425.91 546.3 1432.61 560.543C1438.52 572.98 1442.52 586.22 1433.91 600.062C1430.31 605.779 1428.61 613.403 1431.21 620.223C1441.72 648.108 1452.82 675.892 1463.62 703.676C1466.02 709.694 1470.42 710.998 1476.43 710.998C1507.53 711.299 1549.05 675.19 1549.45 644.196C1549.65 632.159 1552.95 624.637 1562.15 619.722C1577.65 611.497 1580.05 597.856 1574.85 584.315C1563.95 556.53 1576.25 537.974 1596.66 522.628C1609.36 512.999 1618.86 501.464 1625.47 487.321C1627.57 482.807 1632.77 477.391 1627.57 472.877C1624.97 470.57 1618.76 471.473 1614.46 472.275C1603.86 474.181 1592.66 479.096 1589.66 462.546C1612.26 464.351 1629.57 450.71 1648.07 441.482C1672.08 429.546 1674.38 417.71 1658.37 397.549C1660.38 397.349 1662.38 397.048 1664.38 396.847C1709.29 393.537 1738.8 411.993 1749.6 457.23C1751 463.148 1754.1 468.664 1756.9 474.181C1758.9 478.093 1760 483.911 1765.9 483.309C1772.01 482.707 1776.21 477.591 1776.21 472.376C1776.31 446.598 1797.41 436.668 1812.92 422.725C1824.82 411.893 1838.32 412.996 1845.33 427.741C1857.63 453.418 1884.54 460.941 1903.34 478.294C1908.04 482.607 1911.64 479.598 1915.54 477.19C1932.45 466.658 1927.65 455.324 1917.84 442.686C1906.64 428.142 1909.64 421.02 1927.95 419.516C1939.75 418.513 1950.35 414.099 1960.96 410.187C1975.76 404.871 1984.16 391.932 1989.26 378.291C1995.37 362.142 1976.46 346.996 1985.16 329.844C1979.16 328.741 1970.96 328.54 1977.06 319.112C1981.36 312.391 1987.76 315.501 1994.77 315.902C2007.27 316.704 2009.17 325.531 2013.77 332.753C2016.27 336.765 2014.27 345.492 2022.27 343.686C2030.27 341.881 2029.67 334.559 2027.07 328.54C2020.37 313.194 2030.68 301.859 2040.88 299.151C2071.99 290.926 2082.19 267.857 2088.99 240.875C2096.39 249.501 2089.79 262.24 2098.39 275.279C2099.99 261.136 2101.59 251.407 2102.09 241.778C2102.59 232.951 2099.69 226.431 2088.69 229.942C2060.08 217.203 2060.28 217.504 2087.49 195.738C2095.29 189.419 2103.49 187.513 2113 187.313C2127.2 187.112 2146.51 191.525 2154.61 184.203C2169.51 170.662 2181.72 165.547 2199.42 174.474C2158.91 215.398 2158.91 215.398 2172.61 241.276C2182.72 230.443 2197.72 221.115 2197.92 207.073C2198.12 182.398 2212.02 179.991 2230.33 178.486C2249.53 176.781 2275.14 168.757 2279.94 156.52C2288.64 134.453 2296.85 134.653 2312.85 143.279C2323.65 149.097 2330.56 141.273 2333.26 134.754C2336.76 126.93 2327.05 127.431 2321.65 125.125ZM1490.43 197.343C1480.03 219.31 1458.12 226.632 1426.21 220.012C1450.82 211.285 1463.72 198.647 1460.12 170.963C1458.22 156.018 1477.73 148.194 1487.63 137.161C1488.33 136.459 1492.43 137.562 1493.63 138.966C1494.63 140.17 1494.43 143.58 1493.43 144.985C1484.23 157.623 1463.12 170.161 1494.33 182.398C1496.43 183.2 1492.13 193.833 1490.43 197.343ZM1529.14 306.674C1522.44 309.182 1513.14 308.279 1514.04 298.75C1514.84 289.021 1521.94 274.477 1531.24 278.689C1544.34 284.607 1560.25 280.896 1571.15 292.03C1574.65 295.641 1581.45 297.847 1577.75 304.668C1575.15 309.483 1569.85 308.379 1564.25 308.48C1553.35 305.37 1541.74 302.06 1529.14 306.674ZM1639.57 273.775C1629.47 285.209 1629.87 293.835 1640.07 303.464C1644.27 307.477 1643.57 317.407 1643.77 324.729C1644.07 333.154 1636.87 336.163 1631.37 332.954C1614.66 323.224 1617.46 303.163 1613.16 288.018C1610.26 278.088 1624.47 272.471 1639.57 273.775Z" fill="#61A5AF" fill-opacity="0.19"/>
<path d="M1182.54 475.347C1174.54 471.589 1167.14 467.575 1157.74 465.611C1137.94 461.597 1116.84 458.523 1108.34 438.539C1105.94 432.817 1098.94 429.572 1091.74 429.145C1081.94 428.461 1074.44 424.875 1067.34 419.409C1048.24 404.464 1023.04 407.794 1000.34 404.378C989.438 402.756 976.738 413.687 977.238 417.701C979.938 436.916 958.838 448.787 959.138 465.953C959.438 490.804 974.938 510.276 996.438 525.136C1008.14 533.164 1013.84 540.935 1011.74 553.233C1010.54 560.407 1009.74 567.58 1008.24 574.669C1001.64 607.719 995.038 640.769 988.238 673.734C984.838 690.302 989.638 704.479 1004.24 716.008C1012.64 720.876 1021.04 722.926 1030.94 717.716C1025.64 711.396 1021.34 706.187 1017.04 701.063C1020.04 688.423 1030.04 678.858 1031.64 664.511C1034.64 638.037 1068.74 629.667 1087.34 611.818C1099.74 599.862 1115.04 589.529 1121.84 574.669C1126.44 564.591 1133.14 558.869 1143.74 556.82C1159.04 553.916 1166.14 545.034 1168.14 533.591C1170.54 519.585 1175.14 507.372 1186.64 496.612C1194.44 489.267 1194.64 480.983 1182.54 475.347Z" fill="#61A5AF" fill-opacity="0.19"/>
<path d="M472.536 475.347C464.536 471.589 457.136 467.575 447.736 465.611C427.936 461.597 406.836 458.523 398.336 438.539C395.936 432.817 388.936 429.572 381.736 429.145C371.936 428.462 364.436 424.875 357.336 419.409C338.236 404.464 313.036 407.794 290.336 404.378C279.436 402.756 266.736 413.687 267.236 417.701C269.936 436.916 248.836 448.787 249.136 465.953C249.436 490.805 264.936 510.276 286.436 525.136C298.136 533.164 303.836 540.935 301.736 553.233C300.536 560.407 299.736 567.581 298.236 574.669C291.636 607.719 285.036 640.77 278.236 673.735C274.836 690.302 279.636 704.479 294.236 716.008C302.636 720.876 311.036 722.926 320.936 717.716C315.636 711.397 311.336 706.187 307.036 701.063C310.036 688.424 320.036 678.859 321.636 664.511C324.636 638.037 358.736 629.667 377.336 611.818C389.736 599.862 405.036 589.529 411.836 574.669C416.436 564.591 423.136 558.87 433.736 556.82C449.036 553.916 456.136 545.035 458.136 533.591C460.536 519.585 465.136 507.372 476.636 496.612C484.436 489.267 484.636 480.983 472.536 475.347Z" fill="#61A5AF" fill-opacity="0.19"/>
<path d="M2424.4 365.347C2416.4 361.589 2409 357.575 2399.6 355.611C2379.8 351.597 2358.7 348.523 2350.2 328.539C2347.8 322.817 2340.8 319.572 2333.6 319.145C2323.8 318.462 2316.3 314.875 2309.2 309.409C2290.1 294.464 2264.9 297.794 2242.2 294.378C2231.3 292.756 2218.6 303.687 2219.1 307.701C2221.8 326.916 2200.7 338.787 2201 355.953C2201.3 380.805 2216.8 400.276 2238.3 415.136C2250 423.164 2255.7 430.935 2253.6 443.233C2252.4 450.407 2251.6 457.581 2250.1 464.669C2243.5 497.719 2236.9 530.77 2230.1 563.735C2226.7 580.302 2231.5 594.479 2246.1 606.008C2254.5 610.876 2262.9 612.926 2272.8 607.716C2267.5 601.397 2263.2 596.187 2258.9 591.063C2261.9 578.424 2271.9 568.859 2273.5 554.511C2276.5 528.037 2310.6 519.667 2329.2 501.818C2341.6 489.862 2356.9 479.529 2363.7 464.669C2368.3 454.591 2375 448.87 2385.6 446.82C2400.9 443.916 2408 435.035 2410 423.591C2412.4 409.585 2417 397.372 2428.5 386.612C2436.3 379.267 2436.5 370.983 2424.4 365.347Z" fill="#61A5AF" fill-opacity="0.19"/>
<path d="M2098.44 505.152C2089.34 514.461 2095.94 526.502 2084.04 528.125C2075.84 529.235 2066.54 524.538 2064.24 517.193C2058.84 499.345 2047.04 505.067 2035.44 510.618C2031.04 512.753 2027.94 515.571 2022.14 516.852C1995.44 522.574 1980.64 545.888 1953.84 552.037C1952.44 552.379 1951.24 555.283 1950.84 557.076C1947.24 574.754 1959.14 589.956 1961.74 606.78C1962.34 610.623 1969.04 610.708 1973.74 609.769C1983.34 607.804 1993.24 606.353 2002.54 603.449C2039.74 591.578 2057.14 594.738 2082.54 620.188C2088.64 626.337 2095.14 629.155 2104.14 629.069C2116.44 628.984 2129.54 629.923 2135.44 617.796C2143.64 600.887 2163.24 584.49 2147.64 565.018C2131.94 545.461 2111.74 528.552 2098.44 505.152Z" fill="#61A5AF" fill-opacity="0.19"/>
<path d="M1969.24 427.522C1962.84 425.216 1960.04 430.767 1955.84 433.073C1949.44 436.489 1943.54 440.674 1937.34 444.431C1932.64 447.25 1925.04 448.445 1927.94 455.619C1930.14 461.256 1933.34 465.867 1941.04 467.917C1960.34 473.041 1969.94 464.842 1971.54 441.186C1970.74 436.574 1978.04 430.767 1969.24 427.522Z" fill="#61A5AF" fill-opacity="0.19"/>
<path d="M2055.84 470.991C2065.74 474.493 2073.74 478.336 2077.84 487.047C2080.04 491.744 2090.84 496.099 2095.54 493.11C2109.34 484.229 2118.04 493.281 2133.64 501.309C2108.14 465.013 2083.24 455.961 2055.84 470.991Z" fill="#61A5AF" fill-opacity="0.19"/>
<path d="M1623.64 513.265C1616.94 508.995 1615.54 516.766 1611.24 518.218C1593.34 524.282 1595.24 538.629 1591.94 551.696C1592.64 556.734 1592.54 563.481 1600.94 565.018C1608.34 566.385 1611.64 561.261 1613.54 555.966C1617.44 545.376 1621.14 534.786 1624.84 524.196C1626.04 520.439 1627.74 515.827 1623.64 513.265Z" fill="#61A5AF" fill-opacity="0.19"/>
<path d="M1638.54 77.1198C1642.64 79.8527 1647.24 83.2687 1652.94 81.9023C1660.24 80.1089 1654.04 75.4118 1655.04 72.1665C1659.74 56.538 1674.64 49.7913 1689.84 43.4716C1698.24 39.9702 1709.34 41.2512 1717.64 31.8571C1684.34 34.0775 1656.74 40.4826 1640.04 65.4198C1637.54 69.0921 1632.14 72.8498 1638.54 77.1198Z" fill="#61A5AF" fill-opacity="0.19"/>
<path d="M1377.54 211.542C1377.44 211.542 1377.34 211.542 1377.24 211.627C1377.24 211.713 1377.24 211.798 1377.24 211.883C1377.24 211.883 1377.24 211.798 1377.34 211.798L1377.24 211.883C1377.24 211.883 1377.34 211.798 1377.44 211.798C1377.54 211.712 1377.54 211.627 1377.54 211.542Z" fill="#61A5AF" fill-opacity="0.19"/>
<path d="M1345.84 169.353C1340.44 172.086 1339.14 176.698 1341.44 181.224C1344.14 186.434 1352.24 192.241 1350.94 195.999C1340.44 226.402 1362.84 213.677 1377.24 211.542C1376.64 195.828 1357.34 187.629 1355.14 172.342C1354.84 169.866 1350.14 167.133 1345.84 169.353Z" fill="#61A5AF" fill-opacity="0.19"/>
<path d="M1471.04 16.9118C1475.04 11.9586 1473.64 8.62789 1472.14 4.61402C1469.54 -2.3035 1463.34 1.11257 1458.84 2.22279C1448.84 4.61403 1439.04 7.77386 1427.34 4.0162C1428.54 12.898 1432.94 15.5454 1436.64 18.7906C1453.94 34.3337 1457.14 33.8213 1471.04 16.9118Z" fill="#61A5AF" fill-opacity="0.19"/>
<path d="M1896.34 452.203C1897.34 450.495 1899.14 448.787 1899.34 446.994C1900.24 439.564 1898.74 432.646 1891.04 427.949C1889.44 427.01 1885.84 426.326 1884.94 427.095C1877.64 433.244 1888.34 439.051 1885.74 445.2C1877.34 441.784 1872.94 432.561 1860.34 434.183C1879.14 447.591 1882.44 472.272 1908.54 480.044C1915.64 467.234 1903.94 460.316 1896.34 452.203Z" fill="#61A5AF" fill-opacity="0.19"/>
<path d="M1297.54 123.066C1294.24 116.148 1287.94 115.38 1280.64 116.746C1271.44 118.454 1257.64 117.173 1256.14 126.226C1255.04 133.143 1267.34 136.303 1275.74 134.937C1284.24 133.57 1293.84 131.948 1297.54 123.066Z" fill="#61A5AF" fill-opacity="0.19"/>
<path d="M2047.64 295.064C2041.64 298.651 2030.74 301.896 2035.54 308.985C2040.54 316.415 2046.34 305.569 2052.74 305.483C2055.54 305.483 2058.24 303.348 2060.94 302.153C2080.54 298.224 2095.04 290.965 2089.24 267.138C2078.74 283.364 2066.54 293.185 2047.64 295.064Z" fill="#61A5AF" fill-opacity="0.19"/>
<path d="M1267.74 55.257C1272.54 49.7059 1278.84 43.3862 1266.84 38.1767C1252.34 7.26141 1283.64 -0.510109 1306.24 -12.4663C1296.84 -18.5298 1290.34 -16.0532 1283.74 -14.7722C1276.24 -13.4057 1268.14 -12.2101 1262.24 -17.6758C1238.94 -39.197 1209.34 -36.5495 1179.44 -34.5853C1143.54 -32.1941 1110.34 -15.0283 1073.04 -20.6648C1066.64 -22.0313 1060.24 -23.3123 1053.84 -24.6787C1008.34 -36.4641 963.937 -26.6429 919.437 -19.3838C912.137 -18.1882 908.137 -14.7721 915.437 -8.87944C913.937 -7.51302 912.437 -6.1466 910.937 -4.78018C901.737 -9.98967 891.137 -15.7116 883.337 -4.951C874.437 7.43222 892.337 8.88407 897.837 15.2038C902.237 20.2425 910.437 17.8512 917.237 17.3388C932.037 16.314 929.037 23.1461 924.637 30.3198C920.337 31.5154 916.037 32.6257 911.737 33.8213C904.137 33.9921 896.337 29.1242 886.337 35.4439C896.837 38.2621 898.537 46.9731 906.237 50.987C906.137 52.1826 906.137 53.3782 906.037 54.4884C888.537 52.5242 879.837 57.9045 883.837 73.8745C876.837 79.8527 883.537 95.5665 864.937 93.4315C861.537 91.8943 858.237 90.357 854.837 88.8198C839.537 83.3541 833.737 71.9103 831.237 56.3672C814.137 70.1169 797.937 66.3592 781.537 61.6621C773.437 51.4994 760.037 53.8906 748.637 51.841C742.037 50.6454 737.337 54.1468 735.337 59.9541C733.737 64.7366 729.537 69.3483 736.037 73.96C741.337 77.6322 746.937 78.5717 752.737 75.4972C757.537 72.9352 761.837 70.9709 767.037 74.3016C768.537 80.6213 770.137 86.8556 771.637 93.1753C750.737 91.5527 728.237 84.8913 709.237 89.2468C668.937 98.641 632.237 85.7454 594.237 81.9877C575.037 80.1089 559.037 82.2439 541.137 87.795C521.137 93.9439 540.037 116.575 519.037 120.76C518.537 120.845 523.137 126.567 527.937 127.934C533.937 129.642 541.737 124.688 546.737 131.691C544.737 133.229 543.337 135.022 541.437 135.62C533.137 138.011 524.437 140.744 524.637 149.455C524.837 157.739 534.937 157.995 541.337 160.813C548.037 163.802 560.537 166.194 560.737 169.353C562.137 189.935 572.137 172.94 577.537 172.599C586.537 172.001 584.737 161.326 593.137 159.618C620.237 154.152 646.637 153.81 670.837 167.902C679.237 175.332 682.037 188.227 698.137 188.056C701.837 192.156 705.837 196.169 709.237 200.44C723.837 218.972 742.037 235.283 736.437 261.672C733.137 276.959 745.937 290.367 760.437 299.676C768.137 304.629 773.737 310.18 777.637 317.44C784.437 327.602 789.637 338.79 802.337 346.134C805.337 337.253 795.537 332.812 795.137 325.894C809.537 332.897 822.837 343.402 827.937 355.187C836.537 374.744 854.337 381.32 873.237 383.54C890.837 385.59 904.237 394.13 920.337 397.802C931.037 400.279 932.737 414.199 947.337 414.285C940.637 402.841 950.137 384.394 924.637 383.113C919.637 382.857 921.237 376.879 921.837 372.951C922.437 368.937 927.537 363.727 919.437 361.336C914.437 359.884 910.837 362.959 907.937 366.204C901.437 373.634 892.637 375.342 883.637 371.072C875.037 366.972 871.037 359.457 871.937 351.002C873.037 340.071 872.037 325.297 888.437 324.272C907.137 323.076 927.137 312.059 945.237 325.638C950.137 329.31 948.537 338.448 961.737 338.534C950.837 319.318 957.537 306.252 977.537 297.37C979.337 296.602 980.737 294.467 981.537 292.673C992.637 265.686 1011.04 246.813 1047.94 247.069C1051.94 247.069 1057.14 245.446 1058.14 239.297C1038.14 242.713 1040.74 225.035 1027.44 219.142C1044.24 214.018 1060.34 220.082 1072.54 210.773C1077.94 215.897 1072.34 220.509 1071.54 225.377C1070.84 229.732 1074.14 231.099 1078.24 231.526C1083.44 232.038 1088.74 234.344 1093.64 231.099C1096.44 229.22 1096.84 225.377 1094.44 224.352C1081.14 218.886 1088.04 206.674 1082.14 198.817C1072.64 188.996 1056.84 184.896 1051.24 171.232C1048.24 163.888 1043.04 154.494 1030.54 165.254C1025.84 169.268 1019.44 166.535 1017.54 162.009C1010.14 144.843 991.737 144.16 975.337 140.402C978.537 135.022 981.637 129.642 984.837 124.347C991.137 128.019 997.437 131.777 1003.84 135.449C1013.34 141 1022.84 148.345 1034.44 139.377C1047.14 129.556 1026.74 126.226 1028.04 117.771C1030.24 117.942 1032.84 117.429 1034.14 118.283C1039.54 121.785 1044.84 124.518 1049.74 118.283C1055.14 111.366 1047.44 109.316 1042.74 106.413C1037.84 103.338 1030.44 101.63 1027.94 97.5308C1013.44 74.5578 984.437 69.6045 961.437 57.3921C961.437 55.0862 961.537 52.8658 961.537 50.56L962.037 49.8767C967.837 44.2402 970.237 38.0059 966.537 30.7468C968.037 27.9286 969.537 25.1957 971.037 22.3775C987.937 13.2395 1001.64 -0.0831146 1021.44 -5.378C1026.04 -1.44954 1030.64 2.47892 1035.24 6.40739C1025.74 12.6417 1011.44 9.56728 1003.34 17.3388C1012.34 34.9315 1026.64 39.714 1047.74 36.6395C1062.34 34.5045 1074.94 42.1906 1080.94 53.7198C1086.74 64.822 1089.24 76.8636 1103.74 83.2687C1108.14 85.2329 1110.64 91.8943 1105.94 95.3957C1094.14 104.021 1095.14 112.647 1101.84 123.151C1108.04 132.972 1112.44 144.245 1123.74 150.223C1136.14 156.799 1149.84 163.119 1155.74 142.452C1159.34 129.813 1170.54 122.383 1185.74 115.892C1201.84 108.975 1217.04 101.288 1234.64 96.6767C1244.84 94.0293 1256.24 89.1614 1257.34 77.2906C1255.64 68.4089 1261.84 62.0038 1267.74 55.257Z" fill="#61A5AF" fill-opacity="0.19"/>
<path d="M487.737 55.257C492.537 49.7059 498.837 43.3862 486.837 38.1767C472.337 7.26141 503.637 -0.510109 526.237 -12.4663C516.837 -18.5298 510.337 -16.0532 503.737 -14.7722C496.237 -13.4057 488.137 -12.2101 482.237 -17.6758C458.937 -39.197 429.337 -36.5495 399.437 -34.5853C363.537 -32.1941 330.337 -15.0283 293.037 -20.6648C286.637 -22.0313 280.237 -23.3123 273.837 -24.6787C228.337 -36.4641 183.937 -26.6429 139.437 -19.3838C132.137 -18.1882 128.137 -14.7721 135.437 -8.87944C133.937 -7.51302 132.437 -6.1466 130.937 -4.78018C121.737 -9.98967 111.137 -15.7116 103.337 -4.951C94.4373 7.43222 112.337 8.88407 117.837 15.2038C122.237 20.2425 130.437 17.8512 137.237 17.3388C152.037 16.314 149.037 23.1461 144.637 30.3198C140.337 31.5154 136.037 32.6257 131.737 33.8213C124.137 33.9921 116.337 29.1242 106.337 35.4439C116.837 38.2621 118.537 46.9731 126.237 50.987C126.137 52.1826 126.137 53.3782 126.037 54.4884C108.537 52.5242 99.8373 57.9045 103.837 73.8745C96.8373 79.8527 103.537 95.5665 84.9374 93.4315C81.5374 91.8943 78.2373 90.357 74.8373 88.8198C59.5374 83.3541 53.7374 71.9103 51.2374 56.3672C34.1374 70.1169 17.9373 66.3592 1.53735 61.6621C-6.56265 51.4994 -19.9626 53.8906 -31.3626 51.841C-37.9626 50.6454 -42.6626 54.1468 -44.6626 59.9541C-46.2626 64.7366 -50.4626 69.3483 -43.9626 73.96C-38.6626 77.6322 -33.0626 78.5717 -27.2626 75.4972C-22.4626 72.9352 -18.1626 70.9709 -12.9626 74.3016C-11.4626 80.6213 -9.86264 86.8556 -8.36264 93.1753C-29.2626 91.5527 -51.7626 84.8913 -70.7626 89.2468C-111.063 98.641 -147.763 85.7454 -185.763 81.9877C-204.963 80.1089 -220.963 82.2439 -238.863 87.795C-258.863 93.9439 -239.963 116.575 -260.963 120.76C-261.463 120.845 -256.863 126.567 -252.063 127.934C-246.063 129.642 -238.263 124.688 -233.263 131.691C-235.263 133.229 -236.663 135.022 -238.563 135.62C-246.863 138.011 -255.563 140.744 -255.363 149.455C-255.163 157.739 -245.063 157.995 -238.663 160.813C-231.963 163.802 -219.463 166.194 -219.263 169.353C-217.863 189.935 -207.863 172.94 -202.463 172.599C-193.463 172.001 -195.263 161.326 -186.863 159.618C-159.763 154.152 -133.363 153.81 -109.163 167.902C-100.763 175.332 -97.9626 188.227 -81.8626 188.056C-78.1626 192.156 -74.1626 196.169 -70.7626 200.44C-56.1626 218.972 -37.9626 235.283 -43.5626 261.672C-46.8626 276.959 -34.0626 290.367 -19.5626 299.676C-11.8626 304.629 -6.26263 310.18 -2.36264 317.44C4.43735 327.602 9.63736 338.79 22.3374 346.134C25.3374 337.253 15.5374 332.812 15.1374 325.894C29.5374 332.897 42.8374 343.402 47.9374 355.187C56.5374 374.744 74.3374 381.32 93.2374 383.54C110.837 385.59 124.237 394.13 140.337 397.802C151.037 400.279 152.737 414.199 167.337 414.285C160.637 402.841 170.137 384.394 144.637 383.113C139.637 382.857 141.237 376.879 141.837 372.951C142.437 368.937 147.537 363.727 139.437 361.336C134.437 359.884 130.837 362.959 127.937 366.204C121.437 373.634 112.637 375.342 103.637 371.072C95.0374 366.972 91.0374 359.457 91.9374 351.002C93.0374 340.071 92.0374 325.297 108.437 324.272C127.137 323.076 147.137 312.059 165.237 325.638C170.137 329.31 168.537 338.448 181.737 338.534C170.837 319.318 177.537 306.252 197.537 297.37C199.337 296.602 200.737 294.467 201.537 292.673C212.637 265.686 231.037 246.813 267.937 247.069C271.937 247.069 277.137 245.446 278.137 239.297C258.137 242.713 260.737 225.035 247.437 219.142C264.237 214.018 280.337 220.082 292.537 210.773C297.937 215.897 292.337 220.509 291.537 225.377C290.837 229.732 294.137 231.099 298.237 231.526C303.437 232.038 308.737 234.344 313.637 231.099C316.437 229.22 316.837 225.377 314.437 224.352C301.137 218.886 308.037 206.674 302.137 198.817C292.637 188.996 276.837 184.896 271.237 171.232C268.237 163.888 263.037 154.494 250.537 165.254C245.837 169.268 239.437 166.535 237.537 162.009C230.137 144.843 211.737 144.16 195.337 140.402C198.537 135.022 201.637 129.642 204.837 124.347C211.137 128.019 217.437 131.777 223.837 135.449C233.337 141 242.837 148.345 254.437 139.377C267.137 129.556 246.737 126.226 248.037 117.771C250.237 117.942 252.837 117.429 254.137 118.283C259.537 121.785 264.837 124.518 269.737 118.283C275.137 111.366 267.437 109.316 262.737 106.413C257.837 103.338 250.437 101.63 247.937 97.5308C233.437 74.5578 204.437 69.6045 181.437 57.3921C181.437 55.0862 181.537 52.8658 181.537 50.56L182.037 49.8767C187.837 44.2402 190.237 38.0059 186.537 30.7468C188.037 27.9286 189.537 25.1957 191.037 22.3775C207.937 13.2395 221.637 -0.0831146 241.437 -5.378C246.037 -1.44954 250.637 2.47892 255.237 6.40739C245.737 12.6417 231.437 9.56728 223.337 17.3388C232.337 34.9315 246.637 39.714 267.737 36.6395C282.337 34.5045 294.937 42.1906 300.937 53.7198C306.737 64.822 309.237 76.8636 323.737 83.2687C328.137 85.2329 330.637 91.8943 325.937 95.3957C314.137 104.021 315.137 112.647 321.837 123.151C328.037 132.972 332.437 144.245 343.737 150.223C356.137 156.799 369.837 163.119 375.737 142.452C379.337 129.813 390.537 122.383 405.737 115.892C421.837 108.975 437.037 101.288 454.637 96.6767C464.837 94.0293 476.237 89.1614 477.337 77.2906C475.637 68.4089 481.837 62.0038 487.737 55.257Z" fill="#61A5AF" fill-opacity="0.19"/>
<path d="M773.337 45.8628C792.337 51.9264 811.137 53.2928 829.737 41.7636C821.637 42.4468 819.137 26.6475 806.737 38.5183C802.237 42.8738 795.637 37.5789 790.337 35.1877C774.037 15.0329 763.037 34.8461 743.537 38.5183C757.637 42.0198 765.537 43.984 773.337 45.8628Z" fill="#61A5AF" fill-opacity="0.19"/>
<path d="M2004.34 418.64C2010.04 418.042 2012.24 414.712 2011.74 410.612C2010.74 403.524 2009.14 396.009 1998.54 394.984C1993.94 394.557 1991.54 397.802 1992.74 401.389C1994.74 407.794 1994.34 415.737 2004.34 418.64Z" fill="#61A5AF" fill-opacity="0.19"/>
<path d="M1853.54 6.91975C1860.54 6.66354 1866.44 5.46789 1866.14 -1.70583C1865.94 -7.00072 1862.44 -10.5022 1856.04 -10.246C1848.84 -9.98977 1841.14 -7.68389 1840.54 -1.02258C1839.84 5.89494 1848.44 5.38252 1853.54 6.91975Z" fill="#61A5AF" fill-opacity="0.19"/>
<path d="M865.637 75.7533C871.337 77.1197 875.537 73.7891 876.637 67.4694C872.937 64.7365 875.837 57.4774 867.137 56.6234C858.437 55.684 853.437 62.6015 852.337 66.1883C850.537 72.5081 859.837 74.3869 865.637 75.7533Z" fill="#61A5AF" fill-opacity="0.19"/>
<path d="M1682.04 -5.46344C1672.04 -4.35322 1666.84 -20.0671 1654.34 -11.1C1650.64 -8.45252 1650.24 -5.89047 1653.74 -2.98682C1663.14 4.78471 1672.14 -0.510151 1682.04 -5.46344Z" fill="#61A5AF" fill-opacity="0.19"/>
<path d="M1327.34 208.382C1334.94 207.272 1339.04 203.172 1339.44 196.426C1339.64 191.814 1337.64 188.996 1331.64 189.166C1324.84 191.216 1320.64 194.803 1320.24 201.635C1319.94 206.503 1321.34 209.236 1327.34 208.382Z" fill="#61A5AF" fill-opacity="0.19"/>
<path d="M1977.64 466.038C1977.54 470.308 1976.74 475.603 1985.14 475.518C1989.14 473.895 1997.34 475.261 1994.54 467.917C1993.14 464.33 1999.14 457.839 1989.74 457.242C1982.84 456.815 1977.84 459.718 1977.64 466.038Z" fill="#61A5AF" fill-opacity="0.19"/>
<path d="M2172.24 488.413C2178.74 494.05 2185.14 498.747 2197.64 499.174C2186.44 486.278 2186.44 486.278 2172.24 488.413Z" fill="#61A5AF" fill-opacity="0.19"/>
<path d="M1908.64 480.044C1908.54 480.044 1908.54 480.044 1908.64 480.044C1908.54 480.129 1908.54 480.215 1908.44 480.3C1908.64 480.3 1908.84 480.3 1908.94 480.385C1908.84 480.3 1908.74 480.215 1908.64 480.044Z" fill="#61A5AF" fill-opacity="0.19"/>
<path d="M1954.24 491.402C1973.84 497.722 1993.34 499.515 2012.74 494.221C2012.74 492.256 2012.74 490.207 2012.74 488.242C1993.34 488.242 1973.84 488.242 1954.44 488.242C1940.14 482.008 1924.34 482.179 1908.94 480.385C1921.34 491.915 1938.64 489.182 1954.24 491.402Z" fill="#61A5AF" fill-opacity="0.19"/>
<path d="M1462.64 265.345C1463.64 267.309 1464.14 269.102 1464.14 270.896C1464.24 270.896 1464.34 270.81 1464.54 270.81C1464.44 268.761 1464.24 266.796 1462.64 265.345Z" fill="#61A5AF" fill-opacity="0.19"/>
</g>
<g filter="url(#filter0_d_94_4736)">
<rect x="62" y="170" width="180" height="179.254" rx="89.627" fill="white"/>
<path d="M166.314 215.818C169.556 216.899 172.957 217.046 176.244 216.224C178.575 215.642 180.273 215.883 181.373 216.254C182.394 216.599 183.55 216.332 184.351 215.531C185.9 213.982 185.266 211.346 183.184 210.665C181.041 209.964 178.202 209.672 174.816 210.518C172.078 211.203 169.724 210.772 168.165 210.249C166.912 209.829 165.54 210.317 164.811 211.41C163.741 213.016 164.483 215.207 166.314 215.818Z" fill="#61A5AF"/>
<path d="M184.456 254.587C139.173 262.137 119.399 265.43 118.574 265.568C117.156 265.805 116.117 267.032 116.117 268.47V309.254H187.882V257.489C187.882 255.693 186.288 254.295 184.456 254.587ZM147.098 293.568C147.098 295.191 145.78 296.509 144.156 296.509H131.607C129.984 296.509 128.666 295.191 128.666 293.568V281.019C128.666 279.395 129.984 278.077 131.607 278.077H144.156C145.78 278.077 147.098 279.395 147.098 281.019V293.568ZM175.333 293.568C175.333 295.191 174.015 296.509 172.392 296.509H159.843C158.205 296.509 156.902 295.177 156.902 293.568V281.019C156.902 279.407 158.208 278.077 159.843 278.077H172.392C174.015 278.077 175.333 279.395 175.333 281.019V293.568Z" fill="#76CEDC"/>
<path d="M134.549 283.96H141.215V290.627H134.549V283.96Z" fill="#76CEDC"/>
<path d="M162.785 283.96H169.452V290.627H162.785V283.96Z" fill="#76CEDC"/>
<path d="M198.86 227.568C198.797 225.99 197.5 224.744 195.921 224.744H173.96C172.382 224.744 171.085 225.99 171.022 227.568L170.086 251.02C184.422 248.63 183.902 248.666 184.941 248.666C189.796 248.666 193.765 252.597 193.765 257.489V309.254H199.059C200.728 309.254 202.064 307.864 201.998 306.196L198.86 227.568Z" fill="#61A5AF"/>
<path d="M126.706 258.25V243.372C126.706 242.258 126.076 241.238 125.08 240.74C122.422 239.411 119.775 238.734 117.294 238.47V232.587C117.294 232.371 117.47 232.195 117.686 232.195H142.392C142.608 232.195 142.784 232.371 142.784 232.587V238.546C138.329 239.111 135.233 240.625 134.998 240.74C134.002 241.238 133.373 242.258 133.373 243.372V257.138C144.687 255.253 154.03 253.695 158.078 253.021V243.372C158.078 242.258 157.449 241.238 156.453 240.74C153.852 239.447 151.169 238.73 148.667 238.472C148.667 236.349 148.667 234.941 148.667 232.587C148.667 229.127 145.852 226.313 142.392 226.313H117.686C114.226 226.313 111.412 229.127 111.412 232.587V238.546C108.074 238.969 104.833 240.106 103.773 240.67C102.58 241.235 102 242.285 102 243.372V306.313C102 307.936 103.318 309.254 104.941 309.254H110.235V268.47C110.235 264.138 113.335 260.477 117.608 259.766C121.73 259.079 119.697 259.418 126.706 258.25Z" fill="#76CEDC"/>
</g>
<path d="M79.8791 408.272V385.594H74.8131L69.9171 400.248L65.0551 385.594H59.9551V408.272H63.7291V391.782L69.1691 408.272H70.6311L76.1391 391.782V408.272H79.8791Z" fill="#292B2B"/>
<path d="M96.9094 408.272V397.052C96.9094 393.04 94.3934 391.442 90.9594 391.442C88.8514 391.442 86.6074 392.156 84.9414 393.822L86.2674 396.202C87.5254 394.91 88.8854 394.332 90.3474 394.332C92.3874 394.332 93.5434 395.488 93.5434 397.46V399.84C92.5914 398.514 90.8914 397.868 89.2254 397.868C86.5734 397.868 84.1934 399.67 84.1934 403.206C84.1934 406.708 86.5734 408.68 89.2254 408.68C90.8914 408.68 92.5574 407.966 93.5434 406.606V408.272H96.9094ZM93.5434 404.532C92.8974 405.654 91.6734 406.334 90.4494 406.334C88.6814 406.334 87.5934 405.042 87.5934 403.274C87.5934 401.506 88.6814 400.214 90.4494 400.214C91.6734 400.214 92.8974 400.894 93.5434 402.05V404.532Z" fill="#292B2B"/>
<path d="M114.412 408.272V395.896C114.412 393.074 113.052 391.442 110.094 391.442C108.054 391.442 106.218 392.734 105.334 394.06V391.85H101.934V408.272H105.334V396.712C105.946 395.556 107.204 394.434 108.666 394.434C110.128 394.434 111.012 395.148 111.012 397.086V408.272H114.412Z" fill="#292B2B"/>
<path d="M131.934 408.272V391.85H128.534V403.444C127.888 404.6 126.63 405.688 125.202 405.688C123.74 405.688 122.856 404.974 122.856 403.07V391.85H119.456V404.26C119.456 407.116 120.816 408.68 123.74 408.68C125.848 408.68 127.616 407.456 128.534 406.096V408.272H131.934Z" fill="#292B2B"/>
<path d="M143.778 394.808V391.85H141.058V390.32C141.058 388.892 141.738 388.144 142.86 388.144C143.234 388.144 143.574 388.212 143.914 388.382L144.594 385.764C143.914 385.424 143.064 385.254 142.112 385.254C139.494 385.254 137.658 387.056 137.658 390.32V391.85H135.516V394.808H137.658V408.272H141.058V394.808H143.778Z" fill="#292B2B"/>
<path d="M159.194 408.272V397.052C159.194 393.04 156.678 391.442 153.244 391.442C151.136 391.442 148.892 392.156 147.226 393.822L148.552 396.202C149.81 394.91 151.17 394.332 152.632 394.332C154.672 394.332 155.828 395.488 155.828 397.46V399.84C154.876 398.514 153.176 397.868 151.51 397.868C148.858 397.868 146.478 399.67 146.478 403.206C146.478 406.708 148.858 408.68 151.51 408.68C153.176 408.68 154.842 407.966 155.828 406.606V408.272H159.194ZM155.828 404.532C155.182 405.654 153.958 406.334 152.734 406.334C150.966 406.334 149.878 405.042 149.878 403.274C149.878 401.506 150.966 400.214 152.734 400.214C153.958 400.214 155.182 400.894 155.828 402.05V404.532Z" fill="#292B2B"/>
<path d="M163.404 400.044C163.404 405.008 166.226 408.68 170.612 408.68C173.06 408.68 174.624 407.694 175.61 406.47L173.876 404.158C173.06 405.178 172.142 405.688 170.952 405.688C168.368 405.688 166.906 403.172 166.906 400.044C166.906 396.916 168.368 394.434 170.952 394.434C172.142 394.434 173.06 394.91 173.876 395.964L175.61 393.652C174.624 392.428 173.06 391.442 170.612 391.442C166.226 391.442 163.404 395.08 163.404 400.044Z" fill="#292B2B"/>
<path d="M183.771 408.68C185.165 408.68 186.117 408.306 186.729 407.694L185.913 405.144C185.675 405.45 185.165 405.688 184.621 405.688C183.737 405.688 183.363 405.008 183.363 403.886V394.808H186.083V391.85H183.363V387.362H179.963V391.85H177.821V394.808H179.963V404.6C179.963 407.286 181.187 408.68 183.771 408.68Z" fill="#292B2B"/>
<path d="M202.478 408.272V391.85H199.078V403.444C198.432 404.6 197.174 405.688 195.746 405.688C194.284 405.688 193.4 404.974 193.4 403.07V391.85H190V404.26C190 407.116 191.36 408.68 194.284 408.68C196.392 408.68 198.16 407.456 199.078 406.096V408.272H202.478Z" fill="#292B2B"/>
<path d="M210.922 408.272V397.018C211.602 395.794 213.166 394.74 214.56 394.74C214.866 394.74 215.172 394.774 215.444 394.842V391.476C213.608 391.476 211.874 392.666 210.922 394.264V391.85H207.522V408.272H210.922Z" fill="#292B2B"/>
<path d="M218.185 400.044C218.185 405.144 221.041 408.68 225.563 408.68C227.773 408.68 229.847 407.762 231.241 406.164L229.609 404.124C228.657 405.246 227.195 405.892 225.903 405.892C223.251 405.892 221.755 403.852 221.619 401.166H232.057V400.18C232.057 395.216 229.677 391.442 225.223 391.442C220.837 391.442 218.185 395.284 218.185 400.044ZM225.189 394.196C227.807 394.196 228.725 396.712 228.759 398.752H221.585C221.687 396.78 222.639 394.196 225.189 394.196Z" fill="#292B2B"/>
<path d="M239.524 408.272V397.018C240.204 395.794 241.768 394.74 243.162 394.74C243.468 394.74 243.774 394.774 244.046 394.842V391.476C242.21 391.476 240.476 392.666 239.524 394.264V391.85H236.124V408.272H239.524Z" fill="#292B2B"/>
<path fill-rule="evenodd" clip-rule="evenodd" d="M340.5 286.727L350.5 292.5L340.5 298.274V293.5H340.292V291.5H340.5V286.727ZM279.042 293.5H277V291.5H279.042V293.5ZM287.208 293.5H283.125V291.5H287.208V293.5ZM295.375 293.5H291.292V291.5H295.375V293.5ZM303.542 293.5H299.458V291.5H303.542V293.5ZM311.708 293.5H307.625V291.5H311.708V293.5ZM319.875 293.5H315.792V291.5H319.875V293.5ZM328.042 293.5H323.958V291.5H328.042V293.5ZM336.208 293.5H332.125V291.5H336.208V293.5Z" fill="#7B7B7B"/>
<g filter="url(#filter1_d_94_4736)">
<rect x="385.5" y="170" width="180" height="180" rx="90" fill="white"/>
<g clip-path="url(#clip1_94_4736)">
<path d="M518.207 285.317H507.504L503.873 281.154C504.901 280.03 505.529 278.536 505.529 276.896V246.223C505.529 245.064 505.213 243.978 504.666 243.042C501.33 248.84 495.072 252.751 487.917 252.751H483.881V276.896C483.881 278.986 484.902 280.84 486.47 281.99C485.113 283.64 484.297 285.749 484.297 288.047V300.047C484.297 301.665 485.608 302.976 487.226 302.976H517.417C521.874 302.976 525.499 299.351 525.499 294.895V292.609C525.499 288.589 522.228 285.317 518.207 285.317Z" fill="#76CEDC"/>
<path d="M487.478 236.153C488.982 236.153 490.205 234.93 490.205 233.427C490.205 231.923 488.982 230.7 487.478 230.7C485.975 230.7 484.752 231.923 484.752 233.427C484.752 234.93 485.975 236.153 487.478 236.153Z" fill="#76CEDC"/>
<path d="M487.917 219.961H469.716V230.497H459.535V219.961C459.535 218.343 458.223 217.031 456.605 217.031H428.43C426.811 217.031 425.5 218.343 425.5 219.961V231.003C425.5 244.233 436.264 254.997 449.494 254.997H456.605C458.223 254.997 459.535 253.685 459.535 252.068V236.357H469.716V246.892H487.917C495.346 246.892 501.368 240.869 501.368 233.441V233.412C501.368 225.984 495.346 219.961 487.917 219.961ZM487.479 241.026C483.288 241.026 479.879 237.618 479.879 233.427C479.879 229.236 483.289 225.826 487.479 225.826C491.67 225.826 495.079 229.236 495.079 233.427C495.079 237.618 491.67 241.026 487.479 241.026Z" fill="#61A5AF"/>
</g>
</g>
<path d="M393.158 406.755C394.971 408.679 397.598 409.9 401.113 409.9C406.404 409.9 409.142 406.681 409.142 402.648C409.142 397.875 405.479 396.247 402.334 394.841C400.04 393.805 398.079 392.917 398.079 391.03C398.079 389.217 399.448 388.033 401.446 388.033C403.37 388.033 405.22 388.699 406.663 390.142L408.661 387.034C406.885 385.332 404.443 384.37 401.557 384.37C396.895 384.37 393.898 387.404 393.898 391.252C393.898 395.877 397.45 397.394 400.521 398.726C402.889 399.799 404.961 400.761 404.961 402.981C404.961 404.72 403.666 406.237 401.113 406.237C398.671 406.237 396.562 405.09 395.23 403.573L393.158 406.755Z" fill="#292B2B"/>
<path d="M416.862 409.9C418.379 409.9 419.415 409.493 420.081 408.827L419.193 406.052C418.934 406.385 418.379 406.644 417.787 406.644C416.825 406.644 416.418 405.904 416.418 404.683V394.804H419.378V391.585H416.418V386.701H412.718V391.585H410.387V394.804H412.718V405.46C412.718 408.383 414.05 409.9 416.862 409.9Z" fill="#292B2B"/>
<path d="M421.642 400.502C421.642 406.052 424.75 409.9 429.671 409.9C432.076 409.9 434.333 408.901 435.85 407.162L434.074 404.942C433.038 406.163 431.447 406.866 430.041 406.866C427.155 406.866 425.527 404.646 425.379 401.723H436.738V400.65C436.738 395.248 434.148 391.141 429.301 391.141C424.528 391.141 421.642 395.322 421.642 400.502ZM429.264 394.138C432.113 394.138 433.112 396.876 433.149 399.096H425.342C425.453 396.95 426.489 394.138 429.264 394.138Z" fill="#292B2B"/>
<path d="M443.755 409.456V397.209C444.495 395.877 446.197 394.73 447.714 394.73C448.047 394.73 448.38 394.767 448.676 394.841V391.178C446.678 391.178 444.791 392.473 443.755 394.212V391.585H440.055V409.456H443.755Z" fill="#292B2B"/>
<path d="M453.286 388.625C454.544 388.625 455.58 387.589 455.58 386.331C455.58 385.036 454.544 384 453.286 384C452.028 384 450.955 385.036 450.955 386.331C450.955 387.589 452.028 388.625 453.286 388.625ZM455.136 409.456V391.585H451.436V409.456H455.136Z" fill="#292B2B"/>
<path d="M463.194 409.456V384.777H459.494V409.456H463.194Z" fill="#292B2B"/>
<path d="M469.402 388.625C470.66 388.625 471.696 387.589 471.696 386.331C471.696 385.036 470.66 384 469.402 384C468.144 384 467.071 385.036 467.071 386.331C467.071 387.589 468.144 388.625 469.402 388.625ZM471.252 409.456V391.585H467.552V409.456H471.252Z" fill="#292B2B"/>
<path d="M486.746 409.456V406.237H479.457L486.598 394.286V391.585H474.832V394.804H481.973L474.832 406.644V409.456H486.746Z" fill="#292B2B"/>
<path d="M503.301 409.456V397.246C503.301 392.88 500.563 391.141 496.826 391.141C494.532 391.141 492.09 391.918 490.277 393.731L491.72 396.321C493.089 394.915 494.569 394.286 496.16 394.286C498.38 394.286 499.638 395.544 499.638 397.69V400.28C498.602 398.837 496.752 398.134 494.939 398.134C492.053 398.134 489.463 400.095 489.463 403.943C489.463 407.754 492.053 409.9 494.939 409.9C496.752 409.9 498.565 409.123 499.638 407.643V409.456H503.301ZM499.638 405.386C498.935 406.607 497.603 407.347 496.271 407.347C494.347 407.347 493.163 405.941 493.163 404.017C493.163 402.093 494.347 400.687 496.271 400.687C497.603 400.687 498.935 401.427 499.638 402.685V405.386Z" fill="#292B2B"/>
<path d="M512.469 409.9C513.986 409.9 515.022 409.493 515.688 408.827L514.8 406.052C514.541 406.385 513.986 406.644 513.394 406.644C512.432 406.644 512.025 405.904 512.025 404.683V394.804H514.985V391.585H512.025V386.701H508.325V391.585H505.994V394.804H508.325V405.46C508.325 408.383 509.657 409.9 512.469 409.9Z" fill="#292B2B"/>
<path d="M519.988 388.625C521.246 388.625 522.282 387.589 522.282 386.331C522.282 385.036 521.246 384 519.988 384C518.73 384 517.657 385.036 517.657 386.331C517.657 387.589 518.73 388.625 519.988 388.625ZM521.838 409.456V391.585H518.138V409.456H521.838Z" fill="#292B2B"/>
<path d="M533.04 409.9C538.109 409.9 540.773 405.534 540.773 400.502C540.773 395.47 538.109 391.141 533.04 391.141C527.971 391.141 525.307 395.47 525.307 400.502C525.307 405.534 527.971 409.9 533.04 409.9ZM533.04 406.644C530.339 406.644 529.118 403.721 529.118 400.502C529.118 397.283 530.339 394.397 533.04 394.397C535.741 394.397 536.962 397.283 536.962 400.502C536.962 403.721 535.741 406.644 533.04 406.644Z" fill="#292B2B"/>
<path d="M557.841 409.456V395.988C557.841 392.917 556.361 391.141 553.142 391.141C550.922 391.141 548.924 392.547 547.962 393.99V391.585H544.262V409.456H547.962V396.876C548.628 395.618 549.997 394.397 551.588 394.397C553.179 394.397 554.141 395.174 554.141 397.283V409.456H557.841Z" fill="#292B2B"/>
<path fill-rule="evenodd" clip-rule="evenodd" d="M664 286.727L674 292.5L664 298.274V293.5H663.792V291.5H664V286.727ZM602.542 293.5H600.5V291.5H602.542V293.5ZM610.708 293.5H606.625V291.5H610.708V293.5ZM618.875 293.5H614.792V291.5H618.875V293.5ZM627.042 293.5H622.958V291.5H627.042V293.5ZM635.208 293.5H631.125V291.5H635.208V293.5ZM643.375 293.5H639.292V291.5H643.375V293.5ZM651.542 293.5H647.458V291.5H651.542V293.5ZM659.708 293.5H655.625V291.5H659.708V293.5Z" fill="#7B7B7B"/>
<g filter="url(#filter2_d_94_4736)">
<rect x="709" y="170" width="180" height="180" rx="90" fill="white"/>
<g clip-path="url(#clip2_94_4736)">
<path d="M770.731 223.856L752.691 233.431C752.382 233.593 752.09 233.777 751.814 233.979L797.946 258.034L817.263 248.479L770.731 223.856Z" fill="#76CEDC"/>
<path d="M848.992 239.321L825.913 250.736V263.595C825.913 265.213 824.602 266.524 822.985 266.524C821.367 266.524 820.056 265.213 820.056 263.595V253.633L800.84 263.137V309.679C800.9 309.651 800.961 309.626 801.021 309.596L845.197 287.212C847.544 286.039 849.001 283.681 849.001 281.056V239.579C849.001 239.493 848.995 239.407 848.992 239.321Z" fill="#61A5AF"/>
<path d="M845.195 233.423L801.037 211.049L801.018 211.04C799.052 210.061 796.716 210.083 794.768 211.098L776.982 220.537L823.734 245.278L846.301 234.116C845.958 233.855 845.59 233.621 845.195 233.423Z" fill="#76CEDC"/>
<path d="M749.014 239.124C749.006 239.259 749 239.393 749 239.528V281.107C749 283.678 750.414 286.013 752.691 287.205L794.75 309.527L794.769 309.537C794.839 309.574 794.911 309.606 794.981 309.64V263.094L749.014 239.124ZM780.592 273.878L768.929 280.72C768.914 280.729 768.899 280.736 768.884 280.745C768.877 280.749 768.87 280.754 768.862 280.758C768.845 280.768 768.827 280.776 768.809 280.785C768.779 280.801 768.75 280.816 768.72 280.831C768.692 280.844 768.663 280.857 768.635 280.87C768.604 280.883 768.574 280.897 768.544 280.909C768.514 280.921 768.485 280.932 768.455 280.943C768.425 280.953 768.395 280.965 768.365 280.975C768.334 280.985 768.303 280.994 768.272 281.003C768.243 281.012 768.214 281.021 768.185 281.028C768.151 281.037 768.117 281.044 768.083 281.052C768.057 281.058 768.03 281.064 768.003 281.07C767.965 281.077 767.927 281.083 767.888 281.088C767.865 281.092 767.843 281.096 767.82 281.099C767.773 281.105 767.727 281.109 767.681 281.113C767.666 281.114 767.651 281.116 767.635 281.117C767.573 281.121 767.511 281.123 767.45 281.123C767.414 281.123 767.379 281.121 767.343 281.119C767.315 281.119 767.288 281.119 767.26 281.117C767.228 281.115 767.196 281.111 767.164 281.107C767.133 281.104 767.102 281.102 767.071 281.098C767.041 281.094 767.011 281.089 766.981 281.084C766.948 281.078 766.916 281.074 766.883 281.068C766.855 281.062 766.827 281.055 766.799 281.049C766.765 281.041 766.731 281.034 766.697 281.025C766.671 281.018 766.644 281.009 766.618 281.001C766.583 280.991 766.549 280.981 766.515 280.97C766.489 280.961 766.464 280.951 766.438 280.942C766.404 280.929 766.37 280.917 766.337 280.904C766.312 280.894 766.287 280.882 766.262 280.871C766.229 280.856 766.196 280.842 766.163 280.826C766.138 280.814 766.114 280.801 766.09 280.788C766.058 280.771 766.026 280.755 765.995 280.737C765.97 280.723 765.946 280.708 765.921 280.693C765.892 280.675 765.862 280.657 765.832 280.637C765.807 280.621 765.783 280.604 765.759 280.587C765.731 280.567 765.703 280.547 765.676 280.527C765.651 280.508 765.627 280.488 765.603 280.469C765.578 280.448 765.552 280.428 765.527 280.406C765.502 280.385 765.479 280.362 765.455 280.34C765.431 280.318 765.408 280.297 765.385 280.275C765.361 280.251 765.338 280.226 765.314 280.201C765.293 280.178 765.272 280.156 765.252 280.133C765.228 280.106 765.206 280.079 765.183 280.052C765.164 280.028 765.145 280.005 765.126 279.981C765.104 279.952 765.083 279.923 765.062 279.893C765.045 279.868 765.027 279.843 765.01 279.818C764.99 279.788 764.971 279.757 764.952 279.726C764.941 279.709 764.93 279.693 764.92 279.675C764.915 279.668 764.912 279.66 764.908 279.653C764.899 279.638 764.89 279.624 764.882 279.609L761.524 273.526C760.743 272.11 761.257 270.328 762.673 269.547C764.089 268.765 765.871 269.279 766.653 270.696L768.557 274.146L777.627 268.825C779.021 268.007 780.816 268.474 781.635 269.869C782.455 271.265 781.988 273.059 780.592 273.878Z" fill="#76CEDC"/>
</g>
</g>
<path d="M731.675 409.456V400.132H735.967C740.814 400.132 743.256 396.58 743.256 392.436C743.256 388.329 740.814 384.777 735.967 384.777H727.568V409.456H731.675ZM739.075 392.436C739.075 394.878 737.669 396.506 735.486 396.506H731.675V388.366H735.486C737.669 388.366 739.075 389.994 739.075 392.436Z" fill="#292B2B"/>
<path d="M758.616 409.456V397.246C758.616 392.88 755.878 391.141 752.141 391.141C749.847 391.141 747.405 391.918 745.592 393.731L747.035 396.321C748.404 394.915 749.884 394.286 751.475 394.286C753.695 394.286 754.953 395.544 754.953 397.69V400.28C753.917 398.837 752.067 398.134 750.254 398.134C747.368 398.134 744.778 400.095 744.778 403.943C744.778 407.754 747.368 409.9 750.254 409.9C752.067 409.9 753.88 409.123 754.953 407.643V409.456H758.616ZM754.953 405.386C754.25 406.607 752.918 407.347 751.586 407.347C749.662 407.347 748.478 405.941 748.478 404.017C748.478 402.093 749.662 400.687 751.586 400.687C752.918 400.687 754.25 401.427 754.953 402.685V405.386Z" fill="#292B2B"/>
<path d="M762.086 400.502C762.086 405.904 765.157 409.9 769.93 409.9C772.594 409.9 774.296 408.827 775.369 407.495L773.482 404.979C772.594 406.089 771.595 406.644 770.3 406.644C767.488 406.644 765.897 403.906 765.897 400.502C765.897 397.098 767.488 394.397 770.3 394.397C771.595 394.397 772.594 394.915 773.482 396.062L775.369 393.546C774.296 392.214 772.594 391.141 769.93 391.141C765.157 391.141 762.086 395.1 762.086 400.502Z" fill="#292B2B"/>
<path d="M792.724 409.456L786.693 399.614L792.613 391.585H788.321L782.031 400.354V384.777H778.331V409.456H782.031V404.868L784.177 401.982L788.395 409.456H792.724Z" fill="#292B2B"/>
<path d="M807.937 409.456V397.246C807.937 392.88 805.199 391.141 801.462 391.141C799.168 391.141 796.726 391.918 794.913 393.731L796.356 396.321C797.725 394.915 799.205 394.286 800.796 394.286C803.016 394.286 804.274 395.544 804.274 397.69V400.28C803.238 398.837 801.388 398.134 799.575 398.134C796.689 398.134 794.099 400.095 794.099 403.943C794.099 407.754 796.689 409.9 799.575 409.9C801.388 409.9 803.201 409.123 804.274 407.643V409.456H807.937ZM804.274 405.386C803.571 406.607 802.239 407.347 800.907 407.347C798.983 407.347 797.799 405.941 797.799 404.017C797.799 402.093 798.983 400.687 800.907 400.687C802.239 400.687 803.571 401.427 804.274 402.685V405.386Z" fill="#292B2B"/>
<path d="M812.147 414.451C813.923 416.116 815.921 416.708 818.474 416.708C822.322 416.708 826.17 415.006 826.17 408.827V391.585H822.507V393.99C821.397 392.066 819.658 391.141 817.919 391.141C813.886 391.141 811.407 394.656 811.407 400.317C811.407 406.052 813.923 409.493 817.919 409.493C819.695 409.493 821.434 408.383 822.507 406.57V409.123C822.507 412.379 820.509 413.6 818.289 413.6C816.439 413.6 814.885 412.934 813.664 411.602L812.147 414.451ZM822.507 403.758C821.878 405.09 820.435 406.2 819.029 406.2C816.476 406.2 815.218 403.721 815.218 400.317C815.218 396.876 816.476 394.397 819.029 394.397C820.435 394.397 821.878 395.507 822.507 396.839V403.758Z" fill="#292B2B"/>
<path d="M832.393 388.625C833.651 388.625 834.687 387.589 834.687 386.331C834.687 385.036 833.651 384 832.393 384C831.135 384 830.062 385.036 830.062 386.331C830.062 387.589 831.135 388.625 832.393 388.625ZM834.243 409.456V391.585H830.543V409.456H834.243Z" fill="#292B2B"/>
<path d="M852.179 409.456V395.988C852.179 392.917 850.699 391.141 847.48 391.141C845.26 391.141 843.262 392.547 842.3 393.99V391.585H838.6V409.456H842.3V396.876C842.966 395.618 844.335 394.397 845.926 394.397C847.517 394.397 848.479 395.174 848.479 397.283V409.456H852.179Z" fill="#292B2B"/>
<path d="M856.41 414.451C858.186 416.116 860.184 416.708 862.737 416.708C866.585 416.708 870.433 415.006 870.433 408.827V391.585H866.77V393.99C865.66 392.066 863.921 391.141 862.182 391.141C858.149 391.141 855.67 394.656 855.67 400.317C855.67 406.052 858.186 409.493 862.182 409.493C863.958 409.493 865.697 408.383 866.77 406.57V409.123C866.77 412.379 864.772 413.6 862.552 413.6C860.702 413.6 859.148 412.934 857.927 411.602L856.41 414.451ZM866.77 403.758C866.141 405.09 864.698 406.2 863.292 406.2C860.739 406.2 859.481 403.721 859.481 400.317C859.481 396.876 860.739 394.397 863.292 394.397C864.698 394.397 866.141 395.507 866.77 396.839V403.758Z" fill="#292B2B"/>
<path fill-rule="evenodd" clip-rule="evenodd" d="M987.5 286.727L997.5 292.5L987.5 298.274V293.5H987.292V291.5H987.5V286.727ZM926.042 293.5H924V291.5H926.042V293.5ZM934.208 293.5H930.125V291.5H934.208V293.5ZM942.375 293.5H938.292V291.5H942.375V293.5ZM950.542 293.5H946.458V291.5H950.542V293.5ZM958.708 293.5H954.625V291.5H958.708V293.5ZM966.875 293.5H962.792V291.5H966.875V293.5ZM975.042 293.5H970.958V291.5H975.042V293.5ZM983.208 293.5H979.125V291.5H983.208V293.5Z" fill="#7B7B7B"/>
<g filter="url(#filter3_d_94_4736)">
<rect x="1032.5" y="170" width="180" height="180" rx="90" fill="white"/>
<g clip-path="url(#clip3_94_4736)">
<path d="M1107.85 239.492C1107.85 237.874 1106.54 236.562 1104.92 236.562H1101.8V224.844C1101.8 223.226 1100.49 221.914 1098.87 221.914C1097.25 221.914 1095.94 223.226 1095.94 224.844V236.562H1093.2C1091.59 236.562 1090.27 237.874 1090.27 239.492V242.617H1107.85V239.492H1107.85Z" fill="#76CEDC"/>
<path d="M1078.55 248.477H1107.85V262.93H1078.55V248.477Z" fill="#76CEDC"/>
<path d="M1169.57 292.227H1165.92C1164.66 287.564 1165.07 282.653 1167.11 278.216L1172.23 267.083C1173.12 265.15 1171.71 262.93 1169.57 262.93H1154.72C1153.61 262.93 1152.6 263.557 1152.1 264.549L1149.98 268.789H1075.43C1073.81 268.789 1072.5 270.101 1072.5 271.719V277.64C1072.5 282.452 1076.41 286.367 1081.23 286.367H1081.48V292.227H1075.43C1073.81 292.227 1072.5 293.538 1072.5 295.156C1072.5 296.774 1073.81 298.086 1075.43 298.086H1169.57C1171.19 298.086 1172.5 296.774 1172.5 295.156C1172.5 293.538 1171.19 292.227 1169.57 292.227ZM1153.75 275.82C1155.37 275.82 1156.68 277.132 1156.68 278.75C1156.68 280.368 1155.37 281.68 1153.75 281.68C1152.13 281.68 1150.82 280.368 1150.82 278.75C1150.82 277.132 1152.13 275.82 1153.75 275.82Z" fill="#76CEDC"/>
<path d="M1131.29 239.102H1123.47C1122.4 239.102 1121.52 239.976 1121.52 241.055V248.477H1131.29V239.102Z" fill="#61A5AF"/>
<path d="M1146.91 241.055C1146.91 239.976 1146.04 239.102 1144.96 239.102H1137.15V248.477H1146.91V241.055Z" fill="#61A5AF"/>
<path d="M1113.71 254.336H1123.48V262.93H1113.71V254.336Z" fill="#61A5AF"/>
<path d="M1129.33 254.336H1139.1V262.93H1129.33V254.336Z" fill="#61A5AF"/>
<path d="M1144.96 262.93H1146.36C1146.57 262.687 1148.43 257.07 1154.72 257.07V254.336H1144.96V262.93Z" fill="#61A5AF"/>
</g>
</g>
<path d="M1022.25 406.91C1023.92 408.678 1026.33 409.8 1029.56 409.8C1034.42 409.8 1036.94 406.842 1036.94 403.136C1036.94 398.75 1033.57 397.254 1030.68 395.962C1028.58 395.01 1026.77 394.194 1026.77 392.46C1026.77 390.794 1028.03 389.706 1029.87 389.706C1031.64 389.706 1033.34 390.318 1034.66 391.644L1036.5 388.788C1034.87 387.224 1032.62 386.34 1029.97 386.34C1025.69 386.34 1022.93 389.128 1022.93 392.664C1022.93 396.914 1026.2 398.308 1029.02 399.532C1031.19 400.518 1033.1 401.402 1033.1 403.442C1033.1 405.04 1031.91 406.434 1029.56 406.434C1027.32 406.434 1025.38 405.38 1024.16 403.986L1022.25 406.91Z" fill="#292B2B"/>
<path d="M1053.54 409.392V396.982C1053.54 394.092 1052.18 392.562 1049.26 392.562C1047.22 392.562 1045.35 393.854 1044.47 395.18V386.714H1041.07V409.392H1044.47V397.832C1045.11 396.676 1046.37 395.554 1047.8 395.554C1049.26 395.554 1050.18 396.234 1050.18 398.138V409.392H1053.54Z" fill="#292B2B"/>
<path d="M1060.29 390.25C1061.44 390.25 1062.4 389.298 1062.4 388.142C1062.4 386.952 1061.44 386 1060.29 386C1059.13 386 1058.15 386.952 1058.15 388.142C1058.15 389.298 1059.13 390.25 1060.29 390.25ZM1061.99 409.392V392.97H1058.59V409.392H1061.99Z" fill="#292B2B"/>
<path d="M1070.41 407.182C1071.4 408.95 1073 409.8 1074.63 409.8C1078.33 409.8 1080.61 406.4 1080.61 401.164C1080.61 395.86 1078.33 392.562 1074.63 392.562C1072.96 392.562 1071.36 393.514 1070.41 395.146V392.97H1067.01V415.648H1070.41V407.182ZM1077.11 401.164C1077.11 404.326 1075.95 406.808 1073.61 406.808C1072.32 406.808 1070.99 405.754 1070.41 404.53V397.798C1070.99 396.54 1072.32 395.554 1073.61 395.554C1075.95 395.554 1077.11 398.002 1077.11 401.164Z" fill="#292B2B"/>
<path d="M1100.74 409.392V390.012H1105.94V386.714H1091.8V390.012H1097V409.392H1100.74Z" fill="#292B2B"/>
<path d="M1111.32 409.392V398.138C1112 396.914 1113.57 395.86 1114.96 395.86C1115.27 395.86 1115.57 395.894 1115.84 395.962V392.596C1114.01 392.596 1112.27 393.786 1111.32 395.384V392.97H1107.92V409.392H1111.32Z" fill="#292B2B"/>
<path d="M1131.27 409.392V398.172C1131.27 394.16 1128.75 392.562 1125.32 392.562C1123.21 392.562 1120.97 393.276 1119.3 394.942L1120.63 397.322C1121.88 396.03 1123.24 395.452 1124.71 395.452C1126.75 395.452 1127.9 396.608 1127.9 398.58V400.96C1126.95 399.634 1125.25 398.988 1123.58 398.988C1120.93 398.988 1118.55 400.79 1118.55 404.326C1118.55 407.828 1120.93 409.8 1123.58 409.8C1125.25 409.8 1126.92 409.086 1127.9 407.726V409.392H1131.27ZM1127.9 405.652C1127.26 406.774 1126.03 407.454 1124.81 407.454C1123.04 407.454 1121.95 406.162 1121.95 404.394C1121.95 402.626 1123.04 401.334 1124.81 401.334C1126.03 401.334 1127.26 402.014 1127.9 403.17V405.652Z" fill="#292B2B"/>
<path d="M1148.77 409.392V397.016C1148.77 394.194 1147.41 392.562 1144.45 392.562C1142.41 392.562 1140.58 393.854 1139.69 395.18V392.97H1136.29V409.392H1139.69V397.832C1140.31 396.676 1141.56 395.554 1143.03 395.554C1144.49 395.554 1145.37 396.268 1145.37 398.206V409.392H1148.77Z" fill="#292B2B"/>
<path d="M1152.52 407.454C1153.92 408.95 1156.02 409.8 1158.54 409.8C1162.14 409.8 1164.42 407.726 1164.42 404.904C1164.42 401.3 1161.6 400.28 1159.25 399.43C1157.62 398.852 1156.26 398.274 1156.26 397.05C1156.26 395.996 1157.25 395.248 1158.78 395.248C1160.41 395.248 1161.87 395.996 1162.69 396.982L1164.12 394.67C1162.82 393.412 1160.99 392.562 1158.71 392.562C1155.11 392.562 1153.07 394.704 1153.07 397.254C1153.07 400.688 1155.79 401.674 1158.1 402.49C1159.76 403.102 1161.19 403.714 1161.19 405.074C1161.19 406.332 1160.17 407.114 1158.47 407.114C1156.77 407.114 1155.04 406.162 1154.05 405.074L1152.52 407.454Z" fill="#292B2B"/>
<path d="M1171.88 407.182C1172.87 408.95 1174.47 409.8 1176.1 409.8C1179.8 409.8 1182.08 406.4 1182.08 401.164C1182.08 395.86 1179.8 392.562 1176.1 392.562C1174.43 392.562 1172.83 393.514 1171.88 395.146V392.97H1168.48V415.648H1171.88V407.182ZM1178.58 401.164C1178.58 404.326 1177.42 406.808 1175.08 406.808C1173.79 406.808 1172.46 405.754 1171.88 404.53V397.798C1172.46 396.54 1173.79 395.554 1175.08 395.554C1177.42 395.554 1178.58 398.002 1178.58 401.164Z" fill="#292B2B"/>
<path d="M1192.56 409.8C1197.22 409.8 1199.67 405.788 1199.67 401.164C1199.67 396.54 1197.22 392.562 1192.56 392.562C1187.9 392.562 1185.45 396.54 1185.45 401.164C1185.45 405.788 1187.9 409.8 1192.56 409.8ZM1192.56 406.808C1190.08 406.808 1188.96 404.122 1188.96 401.164C1188.96 398.206 1190.08 395.554 1192.56 395.554C1195.04 395.554 1196.16 398.206 1196.16 401.164C1196.16 404.122 1195.04 406.808 1192.56 406.808Z" fill="#292B2B"/>
<path d="M1207.29 409.392V398.138C1207.97 396.914 1209.53 395.86 1210.93 395.86C1211.23 395.86 1211.54 395.894 1211.81 395.962V392.596C1209.98 392.596 1208.24 393.786 1207.29 395.384V392.97H1203.89V409.392H1207.29Z" fill="#292B2B"/>
<path d="M1219.79 409.8C1221.18 409.8 1222.14 409.426 1222.75 408.814L1221.93 406.264C1221.69 406.57 1221.18 406.808 1220.64 406.808C1219.76 406.808 1219.38 406.128 1219.38 405.006V395.928H1222.1V392.97H1219.38V388.482H1215.98V392.97H1213.84V395.928H1215.98V405.72C1215.98 408.406 1217.21 409.8 1219.79 409.8Z" fill="#292B2B"/>
<path fill-rule="evenodd" clip-rule="evenodd" d="M1311 286.727L1321 292.5L1311 298.274V293.5H1310.79V291.5H1311V286.727ZM1249.54 293.5H1247.5V291.5H1249.54V293.5ZM1257.71 293.5H1253.62V291.5H1257.71V293.5ZM1265.88 293.5H1261.79V291.5H1265.88V293.5ZM1274.04 293.5H1269.96V291.5H1274.04V293.5ZM1282.21 293.5H1278.13V291.5H1282.21V293.5ZM1290.38 293.5H1286.29V291.5H1290.38V293.5ZM1298.54 293.5H1294.46V291.5H1298.54V293.5ZM1306.71 293.5H1302.62V291.5H1306.71V293.5Z" fill="#7B7B7B"/>
<g filter="url(#filter4_d_94_4736)">
<rect x="1362.03" y="170" width="180" height="180" rx="90" fill="white"/>
<g clip-path="url(#clip4_94_4736)">
<path d="M1455.04 286.86H1471.17V302.99H1455.04V286.86Z" fill="#61A5AF"/>
<path d="M1443.96 264.87H1460.09V281H1443.96V264.87Z" fill="#61A5AF"/>
<path d="M1432.88 286.86H1449.02V302.99H1432.88V286.86Z" fill="#61A5AF"/>
<path d="M1402.03 236.629V303.064H1413.77V245.452H1490.29V303.064H1502.03V236.629L1452.03 216.936L1402.03 236.629Z" fill="#76CEDC"/>
<path d="M1419.62 302.99H1427.03V281H1438.1V259.01H1465.95V281H1477.03V302.99H1484.43V251.311H1419.62V302.99Z" fill="#76CEDC"/>
</g>
</g>
<path d="M1327.77 409.392C1333.89 409.392 1337.32 404.666 1337.32 398.07C1337.32 391.474 1333.85 386.714 1327.77 386.714H1321V409.392H1327.77ZM1324.77 390.012H1327.77C1331.54 390.012 1333.44 393.31 1333.44 398.07C1333.44 402.728 1331.47 406.06 1327.77 406.06H1324.77V390.012Z" fill="#292B2B"/>
<path d="M1343.37 390.25C1344.53 390.25 1345.48 389.298 1345.48 388.142C1345.48 386.952 1344.53 386 1343.37 386C1342.22 386 1341.23 386.952 1341.23 388.142C1341.23 389.298 1342.22 390.25 1343.37 390.25ZM1345.07 409.392V392.97H1341.67V409.392H1345.07Z" fill="#292B2B"/>
<path d="M1348.8 407.454C1350.2 408.95 1352.31 409.8 1354.82 409.8C1358.43 409.8 1360.7 407.726 1360.7 404.904C1360.7 401.3 1357.88 400.28 1355.54 399.43C1353.9 398.852 1352.54 398.274 1352.54 397.05C1352.54 395.996 1353.53 395.248 1355.06 395.248C1356.69 395.248 1358.15 395.996 1358.97 396.982L1360.4 394.67C1359.11 393.412 1357.27 392.562 1354.99 392.562C1351.39 392.562 1349.35 394.704 1349.35 397.254C1349.35 400.688 1352.07 401.674 1354.38 402.49C1356.05 403.102 1357.47 403.714 1357.47 405.074C1357.47 406.332 1356.45 407.114 1354.75 407.114C1353.05 407.114 1351.32 406.162 1350.33 405.074L1348.8 407.454Z" fill="#292B2B"/>
<path d="M1369.18 409.8C1370.58 409.8 1371.53 409.426 1372.14 408.814L1371.33 406.264C1371.09 406.57 1370.58 406.808 1370.03 406.808C1369.15 406.808 1368.78 406.128 1368.78 405.006V395.928H1371.5V392.97H1368.78V388.482H1365.38V392.97H1363.23V395.928H1365.38V405.72C1365.38 408.406 1366.6 409.8 1369.18 409.8Z" fill="#292B2B"/>
<path d="M1378.81 409.392V398.138C1379.49 396.914 1381.06 395.86 1382.45 395.86C1382.76 395.86 1383.06 395.894 1383.33 395.962V392.596C1381.5 392.596 1379.76 393.786 1378.81 395.384V392.97H1375.41V409.392H1378.81Z" fill="#292B2B"/>
<path d="M1388.59 390.25C1389.75 390.25 1390.7 389.298 1390.7 388.142C1390.7 386.952 1389.75 386 1388.59 386C1387.43 386 1386.45 386.952 1386.45 388.142C1386.45 389.298 1387.43 390.25 1388.59 390.25ZM1390.29 409.392V392.97H1386.89V409.392H1390.29Z" fill="#292B2B"/>
<path d="M1398.72 409.392V407.216C1399.7 408.848 1401.27 409.8 1402.93 409.8C1406.6 409.8 1408.92 406.468 1408.92 401.198C1408.92 395.996 1406.6 392.562 1402.93 392.562C1401.3 392.562 1399.7 393.412 1398.72 395.18V386.714H1395.32V409.392H1398.72ZM1398.72 397.832C1399.29 396.608 1400.62 395.554 1401.91 395.554C1404.26 395.554 1405.41 398.002 1405.41 401.198C1405.41 404.36 1404.26 406.808 1401.91 406.808C1400.62 406.808 1399.29 405.788 1398.72 404.564V397.832Z" fill="#292B2B"/>
<path d="M1425.61 409.392V392.97H1422.21V404.564C1421.57 405.72 1420.31 406.808 1418.88 406.808C1417.42 406.808 1416.54 406.094 1416.54 404.19V392.97H1413.14V405.38C1413.14 408.236 1414.5 409.8 1417.42 409.8C1419.53 409.8 1421.3 408.576 1422.21 407.216V409.392H1425.61Z" fill="#292B2B"/>
<path d="M1435.08 409.8C1436.47 409.8 1437.42 409.426 1438.04 408.814L1437.22 406.264C1436.98 406.57 1436.47 406.808 1435.93 406.808C1435.04 406.808 1434.67 406.128 1434.67 405.006V395.928H1437.39V392.97H1434.67V388.482H1431.27V392.97H1429.13V395.928H1431.27V405.72C1431.27 408.406 1432.49 409.8 1435.08 409.8Z" fill="#292B2B"/>
<path d="M1443.01 390.25C1444.16 390.25 1445.11 389.298 1445.11 388.142C1445.11 386.952 1444.16 386 1443.01 386C1441.85 386 1440.86 386.952 1440.86 388.142C1440.86 389.298 1441.85 390.25 1443.01 390.25ZM1444.71 409.392V392.97H1441.31V409.392H1444.71Z" fill="#292B2B"/>
<path d="M1456.02 409.8C1460.68 409.8 1463.13 405.788 1463.13 401.164C1463.13 396.54 1460.68 392.562 1456.02 392.562C1451.36 392.562 1448.92 396.54 1448.92 401.164C1448.92 405.788 1451.36 409.8 1456.02 409.8ZM1456.02 406.808C1453.54 406.808 1452.42 404.122 1452.42 401.164C1452.42 398.206 1453.54 395.554 1456.02 395.554C1458.5 395.554 1459.63 398.206 1459.63 401.164C1459.63 404.122 1458.5 406.808 1456.02 406.808Z" fill="#292B2B"/>
<path d="M1479.83 409.392V397.016C1479.83 394.194 1478.47 392.562 1475.51 392.562C1473.47 392.562 1471.64 393.854 1470.75 395.18V392.97H1467.35V409.392H1470.75V397.832C1471.36 396.676 1472.62 395.554 1474.08 395.554C1475.55 395.554 1476.43 396.268 1476.43 398.206V409.392H1479.83Z" fill="#292B2B"/>
<path d="M1501.57 409.8C1505.68 409.8 1507.72 407.148 1508.88 404.496L1505.75 403.102C1505.03 405.006 1503.64 406.434 1501.57 406.434C1498.34 406.434 1496.26 402.898 1496.26 398.07C1496.26 393.208 1498.34 389.672 1501.57 389.672C1503.54 389.672 1504.93 390.93 1505.71 392.732L1508.84 391.338C1507.65 388.822 1505.61 386.34 1501.57 386.34C1495.99 386.34 1492.42 391.236 1492.42 398.07C1492.42 404.87 1495.99 409.8 1501.57 409.8Z" fill="#292B2B"/>
<path d="M1511.9 401.164C1511.9 406.264 1514.75 409.8 1519.28 409.8C1521.49 409.8 1523.56 408.882 1524.95 407.284L1523.32 405.244C1522.37 406.366 1520.91 407.012 1519.62 407.012C1516.96 407.012 1515.47 404.972 1515.33 402.286H1525.77V401.3C1525.77 396.336 1523.39 392.562 1518.94 392.562C1514.55 392.562 1511.9 396.404 1511.9 401.164ZM1518.9 395.316C1521.52 395.316 1522.44 397.832 1522.47 399.872H1515.3C1515.4 397.9 1516.35 395.316 1518.9 395.316Z" fill="#292B2B"/>
<path d="M1542.32 409.392V397.016C1542.32 394.194 1540.96 392.562 1538 392.562C1535.96 392.562 1534.12 393.854 1533.24 395.18V392.97H1529.84V409.392H1533.24V397.832C1533.85 396.676 1535.11 395.554 1536.57 395.554C1538.03 395.554 1538.92 396.268 1538.92 398.206V409.392H1542.32Z" fill="#292B2B"/>
<path d="M1551.78 409.8C1553.17 409.8 1554.12 409.426 1554.74 408.814L1553.92 406.264C1553.68 406.57 1553.17 406.808 1552.63 406.808C1551.74 406.808 1551.37 406.128 1551.37 405.006V395.928H1554.09V392.97H1551.37V388.482H1547.97V392.97H1545.83V395.928H1547.97V405.72C1547.97 408.406 1549.19 409.8 1551.78 409.8Z" fill="#292B2B"/>
<path d="M1557.19 401.164C1557.19 406.264 1560.05 409.8 1564.57 409.8C1566.78 409.8 1568.85 408.882 1570.25 407.284L1568.62 405.244C1567.66 406.366 1566.2 407.012 1564.91 407.012C1562.26 407.012 1560.76 404.972 1560.63 402.286H1571.06V401.3C1571.06 396.336 1568.68 392.562 1564.23 392.562C1559.84 392.562 1557.19 396.404 1557.19 401.164ZM1564.2 395.316C1566.81 395.316 1567.73 397.832 1567.77 399.872H1560.59C1560.69 397.9 1561.65 395.316 1564.2 395.316Z" fill="#292B2B"/>
<path d="M1578.53 409.392V398.138C1579.21 396.914 1580.78 395.86 1582.17 395.86C1582.48 395.86 1582.78 395.894 1583.05 395.962V392.596C1581.22 392.596 1579.48 393.786 1578.53 395.384V392.97H1575.13V409.392H1578.53Z" fill="#292B2B"/>
<path fill-rule="evenodd" clip-rule="evenodd" d="M1646.55 286.727L1656.55 292.5L1646.55 298.274V293.5H1646.34V291.5H1646.55V286.727ZM1585.09 293.5H1583.05V291.5H1585.09V293.5ZM1593.26 293.5H1589.18V291.5H1593.26V293.5ZM1601.43 293.5H1597.34V291.5H1601.43V293.5ZM1609.59 293.5H1605.51V291.5H1609.59V293.5ZM1617.76 293.5H1613.68V291.5H1617.76V293.5ZM1625.93 293.5H1621.84V291.5H1625.93V293.5ZM1634.09 293.5H1630.01V291.5H1634.09V293.5ZM1642.26 293.5H1638.18V291.5H1642.26V293.5Z" fill="#7B7B7B"/>
<g filter="url(#filter5_d_94_4736)">
<rect x="1691.55" y="170" width="180" height="180" rx="90" fill="white"/>
<g clip-path="url(#clip5_94_4736)">
<path d="M1820.87 255.735C1820.35 254.825 1819.37 254.26 1818.32 254.26H1804.54V265.454C1804.67 265.433 1804.8 265.419 1804.93 265.419H1826.46L1820.87 255.735Z" fill="#76CEDC"/>
<path d="M1828.81 279.567V270.049H1804.93C1804.8 270.049 1804.67 270.035 1804.54 270.014V279.489H1800.49V246.741H1735.6V279.489H1735.03C1733.11 279.489 1731.55 281.044 1731.55 282.961C1731.55 284.879 1733.11 286.434 1735.03 286.434H1735.29H1742.22C1742.43 281.149 1746.79 276.912 1752.12 276.912C1757.46 276.912 1761.82 281.149 1762.02 286.434H1800.8H1806.58C1806.79 281.149 1811.15 276.912 1816.48 276.912C1821.81 276.912 1826.18 281.149 1826.38 286.434H1828.08C1830 286.434 1831.55 284.879 1831.55 282.961C1831.55 281.294 1830.38 279.903 1828.81 279.567Z" fill="#76CEDC"/>
<path d="M1752.12 280.385C1748.57 280.385 1745.69 283.272 1745.69 286.822C1745.69 290.371 1748.57 293.259 1752.12 293.259C1755.67 293.259 1758.56 290.371 1758.56 286.822C1758.56 283.272 1755.67 280.385 1752.12 280.385Z" fill="#61A5AF"/>
<path d="M1816.48 280.385C1812.93 280.385 1810.04 283.272 1810.04 286.822C1810.04 290.371 1812.93 293.259 1816.48 293.259C1820.03 293.259 1822.92 290.371 1822.92 286.822C1822.92 283.272 1820.03 280.385 1816.48 280.385Z" fill="#61A5AF"/>
</g>
</g>
<path d="M1725.02 408.678V389.298H1730.22V386H1716.08V389.298H1721.28V408.678H1725.02Z" fill="#292B2B"/>
<path d="M1735.6 408.678V397.424C1736.28 396.2 1737.85 395.146 1739.24 395.146C1739.55 395.146 1739.85 395.18 1740.12 395.248V391.882C1738.29 391.882 1736.55 393.072 1735.6 394.67V392.256H1732.2V408.678H1735.6Z" fill="#292B2B"/>
<path d="M1755.55 408.678V397.458C1755.55 393.446 1753.03 391.848 1749.6 391.848C1747.49 391.848 1745.24 392.562 1743.58 394.228L1744.9 396.608C1746.16 395.316 1747.52 394.738 1748.98 394.738C1751.02 394.738 1752.18 395.894 1752.18 397.866V400.246C1751.23 398.92 1749.53 398.274 1747.86 398.274C1745.21 398.274 1742.83 400.076 1742.83 403.612C1742.83 407.114 1745.21 409.086 1747.86 409.086C1749.53 409.086 1751.19 408.372 1752.18 407.012V408.678H1755.55ZM1752.18 404.938C1751.53 406.06 1750.31 406.74 1749.09 406.74C1747.32 406.74 1746.23 405.448 1746.23 403.68C1746.23 401.912 1747.32 400.62 1749.09 400.62C1750.31 400.62 1751.53 401.3 1752.18 402.456V404.938Z" fill="#292B2B"/>
<path d="M1773.05 408.678V396.302C1773.05 393.48 1771.69 391.848 1768.73 391.848C1766.69 391.848 1764.86 393.14 1763.97 394.466V392.256H1760.57V408.678H1763.97V397.118C1764.58 395.962 1765.84 394.84 1767.3 394.84C1768.77 394.84 1769.65 395.554 1769.65 397.492V408.678H1773.05Z" fill="#292B2B"/>
<path d="M1776.8 406.74C1778.2 408.236 1780.3 409.086 1782.82 409.086C1786.42 409.086 1788.7 407.012 1788.7 404.19C1788.7 400.586 1785.88 399.566 1783.53 398.716C1781.9 398.138 1780.54 397.56 1780.54 396.336C1780.54 395.282 1781.53 394.534 1783.06 394.534C1784.69 394.534 1786.15 395.282 1786.97 396.268L1788.4 393.956C1787.1 392.698 1785.27 391.848 1782.99 391.848C1779.39 391.848 1777.35 393.99 1777.35 396.54C1777.35 399.974 1780.07 400.96 1782.38 401.776C1784.04 402.388 1785.47 403 1785.47 404.36C1785.47 405.618 1784.45 406.4 1782.75 406.4C1781.05 406.4 1779.32 405.448 1778.33 404.36L1776.8 406.74Z" fill="#292B2B"/>
<path d="M1796.16 406.468C1797.15 408.236 1798.74 409.086 1800.38 409.086C1804.08 409.086 1806.36 405.686 1806.36 400.45C1806.36 395.146 1804.08 391.848 1800.38 391.848C1798.71 391.848 1797.11 392.8 1796.16 394.432V392.256H1792.76V414.934H1796.16V406.468ZM1802.86 400.45C1802.86 403.612 1801.7 406.094 1799.36 406.094C1798.06 406.094 1796.74 405.04 1796.16 403.816V397.084C1796.74 395.826 1798.06 394.84 1799.36 394.84C1801.7 394.84 1802.86 397.288 1802.86 400.45Z" fill="#292B2B"/>
<path d="M1816.84 409.086C1821.5 409.086 1823.94 405.074 1823.94 400.45C1823.94 395.826 1821.5 391.848 1816.84 391.848C1812.18 391.848 1809.73 395.826 1809.73 400.45C1809.73 405.074 1812.18 409.086 1816.84 409.086ZM1816.84 406.094C1814.36 406.094 1813.23 403.408 1813.23 400.45C1813.23 397.492 1814.36 394.84 1816.84 394.84C1819.32 394.84 1820.44 397.492 1820.44 400.45C1820.44 403.408 1819.32 406.094 1816.84 406.094Z" fill="#292B2B"/>
<path d="M1831.57 408.678V397.424C1832.25 396.2 1833.81 395.146 1835.21 395.146C1835.51 395.146 1835.82 395.18 1836.09 395.248V391.882C1834.25 391.882 1832.52 393.072 1831.57 394.67V392.256H1828.17V408.678H1831.57Z" fill="#292B2B"/>
<path d="M1844.07 409.086C1845.46 409.086 1846.41 408.712 1847.03 408.1L1846.21 405.55C1845.97 405.856 1845.46 406.094 1844.92 406.094C1844.03 406.094 1843.66 405.414 1843.66 404.292V395.214H1846.38V392.256H1843.66V387.768H1840.26V392.256H1838.12V395.214H1840.26V405.006C1840.26 407.692 1841.48 409.086 1844.07 409.086Z" fill="#292B2B"/>
<path fill-rule="evenodd" clip-rule="evenodd" d="M1970.05 286.727L1980.05 292.5L1970.05 298.274V293.5H1969.84V291.5H1970.05V286.727ZM1908.59 293.5H1906.55V291.5H1908.59V293.5ZM1916.76 293.5H1912.68V291.5H1916.76V293.5ZM1924.93 293.5H1920.84V291.5H1924.93V293.5ZM1933.09 293.5H1929.01V291.5H1933.09V293.5ZM1941.26 293.5H1937.18V291.5H1941.26V293.5ZM1949.43 293.5H1945.34V291.5H1949.43V293.5ZM1957.59 293.5H1953.51V291.5H1957.59V293.5ZM1965.76 293.5H1961.68V291.5H1965.76V293.5Z" fill="#7B7B7B"/>
<g filter="url(#filter6_d_94_4736)">
<rect x="2015.05" y="170" width="180" height="180" rx="90" fill="white"/>
<g clip-path="url(#clip6_94_4736)">
<path d="M2110.91 227.969H2107.98V225.039C2107.98 223.42 2106.67 222.109 2105.05 222.109C2103.43 222.109 2102.12 223.42 2102.12 225.039V227.969H2099.19C2097.57 227.969 2096.26 229.279 2096.26 230.898C2096.26 232.518 2097.57 233.828 2099.19 233.828H2102.12V236.758C2102.12 238.377 2103.43 239.688 2105.05 239.688C2106.67 239.688 2107.98 238.377 2107.98 236.758V233.828H2110.91C2112.53 233.828 2113.84 232.518 2113.84 230.898C2113.84 229.279 2112.53 227.969 2110.91 227.969Z" fill="#61A5AF"/>
<path d="M2063.84 257.266H2066.77V251.406H2063.84C2059 251.406 2055.05 255.349 2055.05 260.195V307.07C2055.05 308.69 2056.36 310 2057.98 310H2066.77V286.562H2060.91V280.703H2066.77V274.844H2060.91V268.984H2066.77V263.125H2060.91V260.195C2060.91 258.582 2062.23 257.266 2063.84 257.266Z" fill="#76CEDC"/>
<path d="M2146.26 251.406H2143.33V257.266H2146.26C2147.88 257.266 2149.19 258.582 2149.19 260.195V263.125H2143.33V268.984H2149.19V274.844H2143.33V280.703H2149.19V286.562H2143.33V310H2152.12C2153.74 310 2155.05 308.69 2155.05 307.07V260.195C2155.05 255.349 2151.11 251.406 2146.26 251.406Z" fill="#76CEDC"/>
<path d="M2128.69 222.109H2125.56V212.93C2125.56 211.31 2124.25 210 2122.63 210H2087.47C2085.86 210 2084.54 211.31 2084.54 212.93V222.109H2081.42C2076.57 222.109 2072.63 226.052 2072.63 230.898C2072.63 243.943 2072.63 292.072 2072.63 310C2075.89 310 2092.99 310 2096.26 310C2096.26 308.756 2096.26 299.488 2096.26 298.281H2113.84C2113.84 299.526 2113.84 308.793 2113.84 310C2117.1 310 2134.2 310 2137.47 310C2137.47 300.963 2137.47 240.161 2137.47 230.898C2137.47 226.052 2133.53 222.109 2128.69 222.109ZM2102.12 280.703H2090.4V274.844H2102.12V280.703ZM2102.12 268.984H2090.4V263.125H2102.12V268.984ZM2102.12 257.266H2090.4V251.406H2102.12V257.266ZM2119.7 280.703H2107.98V274.844H2119.7V280.703ZM2119.7 268.984H2107.98V263.125H2119.7V268.984ZM2119.7 257.266H2107.98V251.406H2119.7V257.266ZM2119.7 225.039V245.547H2090.4V225.039V215.859H2119.7V225.039Z" fill="#76CEDC"/>
</g>
</g>
<path d="M2023.06 409.052V386.374H2019.29V395.724H2010.99V386.374H2007.22V409.052H2010.99V399.056H2019.29V409.052H2023.06Z" fill="#292B2B"/>
<path d="M2027.41 400.824C2027.41 405.924 2030.26 409.46 2034.79 409.46C2037 409.46 2039.07 408.542 2040.46 406.944L2038.83 404.904C2037.88 406.026 2036.42 406.672 2035.13 406.672C2032.47 406.672 2030.98 404.632 2030.84 401.946H2041.28V400.96C2041.28 395.996 2038.9 392.222 2034.45 392.222C2030.06 392.222 2027.41 396.064 2027.41 400.824ZM2034.41 394.976C2037.03 394.976 2037.95 397.492 2037.98 399.532H2030.81C2030.91 397.56 2031.86 394.976 2034.41 394.976Z" fill="#292B2B"/>
<path d="M2057.21 409.052V397.832C2057.21 393.82 2054.7 392.222 2051.26 392.222C2049.15 392.222 2046.91 392.936 2045.24 394.602L2046.57 396.982C2047.83 395.69 2049.19 395.112 2050.65 395.112C2052.69 395.112 2053.85 396.268 2053.85 398.24V400.62C2052.89 399.294 2051.19 398.648 2049.53 398.648C2046.88 398.648 2044.5 400.45 2044.5 403.986C2044.5 407.488 2046.88 409.46 2049.53 409.46C2051.19 409.46 2052.86 408.746 2053.85 407.386V409.052H2057.21ZM2053.85 405.312C2053.2 406.434 2051.98 407.114 2050.75 407.114C2048.98 407.114 2047.9 405.822 2047.9 404.054C2047.9 402.286 2048.98 400.994 2050.75 400.994C2051.98 400.994 2053.2 401.674 2053.85 402.83V405.312Z" fill="#292B2B"/>
<path d="M2065.64 409.052V386.374H2062.24V409.052H2065.64Z" fill="#292B2B"/>
<path d="M2075.08 409.46C2076.48 409.46 2077.43 409.086 2078.04 408.474L2077.22 405.924C2076.99 406.23 2076.48 406.468 2075.93 406.468C2075.05 406.468 2074.67 405.788 2074.67 404.666V395.588H2077.39V392.63H2074.67V388.142H2071.27V392.63H2069.13V395.588H2071.27V405.38C2071.27 408.066 2072.5 409.46 2075.08 409.46Z" fill="#292B2B"/>
<path d="M2093.79 409.052V396.642C2093.79 393.752 2092.43 392.222 2089.5 392.222C2087.46 392.222 2085.59 393.514 2084.71 394.84V386.374H2081.31V409.052H2084.71V397.492C2085.36 396.336 2086.61 395.214 2088.04 395.214C2089.5 395.214 2090.42 395.894 2090.42 397.798V409.052H2093.79Z" fill="#292B2B"/>
<path d="M2105.8 406.57C2107.47 408.338 2109.88 409.46 2113.11 409.46C2117.97 409.46 2120.49 406.502 2120.49 402.796C2120.49 398.41 2117.12 396.914 2114.23 395.622C2112.12 394.67 2110.32 393.854 2110.32 392.12C2110.32 390.454 2111.58 389.366 2113.42 389.366C2115.18 389.366 2116.88 389.978 2118.21 391.304L2120.05 388.448C2118.41 386.884 2116.17 386 2113.52 386C2109.23 386 2106.48 388.788 2106.48 392.324C2106.48 396.574 2109.74 397.968 2112.57 399.192C2114.74 400.178 2116.65 401.062 2116.65 403.102C2116.65 404.7 2115.46 406.094 2113.11 406.094C2110.87 406.094 2108.93 405.04 2107.7 403.646L2105.8 406.57Z" fill="#292B2B"/>
<path d="M2123.7 415.478C2124.15 415.614 2125.03 415.716 2125.54 415.716C2127.85 415.716 2129.45 414.9 2130.37 412.146L2136.86 392.63H2133.26L2129.59 404.972L2125.95 392.63H2122.34L2127.85 409.392L2127.17 411.364C2126.8 412.384 2126.22 412.724 2125.3 412.724C2125 412.724 2124.52 412.656 2124.21 412.486L2123.7 415.478Z" fill="#292B2B"/>
<path d="M2138.62 407.114C2140.01 408.61 2142.12 409.46 2144.64 409.46C2148.24 409.46 2150.52 407.386 2150.52 404.564C2150.52 400.96 2147.7 399.94 2145.35 399.09C2143.72 398.512 2142.36 397.934 2142.36 396.71C2142.36 395.656 2143.34 394.908 2144.87 394.908C2146.51 394.908 2147.97 395.656 2148.78 396.642L2150.21 394.33C2148.92 393.072 2147.08 392.222 2144.81 392.222C2141.2 392.222 2139.16 394.364 2139.16 396.914C2139.16 400.348 2141.88 401.334 2144.19 402.15C2145.86 402.762 2147.29 403.374 2147.29 404.734C2147.29 405.992 2146.27 406.774 2144.57 406.774C2142.87 406.774 2141.13 405.822 2140.15 404.734L2138.62 407.114Z" fill="#292B2B"/>
<path d="M2159 409.46C2160.39 409.46 2161.34 409.086 2161.95 408.474L2161.14 405.924C2160.9 406.23 2160.39 406.468 2159.85 406.468C2158.96 406.468 2158.59 405.788 2158.59 404.666V395.588H2161.31V392.63H2158.59V388.142H2155.19V392.63H2153.05V395.588H2155.19V405.38C2155.19 408.066 2156.41 409.46 2159 409.46Z" fill="#292B2B"/>
<path d="M2164.41 400.824C2164.41 405.924 2167.27 409.46 2171.79 409.46C2174 409.46 2176.07 408.542 2177.47 406.944L2175.83 404.904C2174.88 406.026 2173.42 406.672 2172.13 406.672C2169.48 406.672 2167.98 404.632 2167.84 401.946H2178.28V400.96C2178.28 395.996 2175.9 392.222 2171.45 392.222C2167.06 392.222 2164.41 396.064 2164.41 400.824ZM2171.41 394.976C2174.03 394.976 2174.95 397.492 2174.98 399.532H2167.81C2167.91 397.56 2168.86 394.976 2171.41 394.976Z" fill="#292B2B"/>
<path d="M2202.89 409.052V396.54C2202.89 393.548 2201.36 392.222 2198.87 392.222C2196.83 392.222 2194.93 393.65 2194.15 395.112C2193.77 393.276 2192.38 392.222 2190.31 392.222C2188.27 392.222 2186.4 393.684 2185.75 394.84V392.63H2182.35V409.052H2185.75V397.492C2186.33 396.404 2187.52 395.214 2188.88 395.214C2190.31 395.214 2190.92 396.132 2190.92 397.628V409.052H2194.32V397.492C2194.86 396.404 2196.09 395.214 2197.45 395.214C2198.87 395.214 2199.49 396.098 2199.49 397.628V409.052H2202.89Z" fill="#292B2B"/>
<path fill-rule="evenodd" clip-rule="evenodd" d="M2293.55 286.727L2303.55 292.5L2293.55 298.274V293.5H2293.34V291.5H2293.55V286.727ZM2232.09 293.5H2230.05V291.5H2232.09V293.5ZM2240.26 293.5H2236.18V291.5H2240.26V293.5ZM2248.43 293.5H2244.34V291.5H2248.43V293.5ZM2256.59 293.5H2252.51V291.5H2256.59V293.5ZM2264.76 293.5H2260.68V291.5H2264.76V293.5ZM2272.93 293.5H2268.84V291.5H2272.93V293.5ZM2281.09 293.5H2277.01V291.5H2281.09V293.5ZM2289.26 293.5H2285.18V291.5H2289.26V293.5Z" fill="#7B7B7B"/>
<g filter="url(#filter7_d_94_4736)">
<rect x="2338.55" y="172.6" width="180" height="180" rx="90" fill="white"/>
<g clip-path="url(#clip7_94_4736)">
<path d="M2472.69 244.827C2472.69 242.13 2470.51 239.944 2467.81 239.944H2466.83V249.709H2467.81C2470.51 249.709 2472.69 247.523 2472.69 244.827Z" fill="#76CEDC"/>
<path d="M2403.94 218.459C2403.94 215.223 2401.32 212.6 2398.08 212.6H2384.41C2381.18 212.6 2378.55 215.223 2378.55 218.459V224.319H2403.94V218.459Z" fill="#61A5AF"/>
<path d="M2394.18 287.795V265.334H2395.15C2396.77 265.334 2398.08 264.023 2398.08 262.405C2398.08 260.787 2396.77 259.475 2395.15 259.475H2394.18V253.616H2398.08C2401.32 253.616 2403.94 250.992 2403.94 247.756V230.178H2378.55V247.756C2378.55 250.992 2381.18 253.616 2384.41 253.616H2388.32V259.475H2387.34C2385.72 259.475 2384.41 260.787 2384.41 262.405C2384.41 264.023 2385.72 265.334 2387.34 265.334H2388.32V287.795C2388.32 295.872 2394.89 302.444 2402.97 302.444H2404.33V299.514C2404.33 298.529 2404.39 297.552 2404.49 296.584H2402.97C2398.12 296.584 2394.18 292.642 2394.18 287.795Z" fill="#61A5AF"/>
<path d="M2420.94 249.709H2421.91V239.944H2420.94C2418.24 239.944 2416.05 242.13 2416.05 244.827C2416.05 247.523 2418.24 249.709 2420.94 249.709Z" fill="#76CEDC"/>
<path d="M2457.07 277.076C2457.06 284.066 2451.37 289.748 2444.37 289.748C2437.38 289.748 2431.69 284.066 2431.68 277.076C2419.74 277.589 2410.19 287.456 2410.19 299.514V309.67C2410.19 311.288 2411.51 312.6 2413.12 312.6H2475.62C2477.24 312.6 2478.55 311.288 2478.55 309.67V299.514C2478.55 287.456 2469 277.589 2457.07 277.076Z" fill="#76CEDC"/>
<path d="M2437.54 272.082V277.053C2437.54 280.828 2440.6 283.889 2444.37 283.889C2448.15 283.889 2451.21 280.828 2451.21 277.053V272.082C2449.05 272.772 2446.76 273.147 2444.37 273.147C2441.99 273.147 2439.69 272.772 2437.54 272.082Z" fill="#76CEDC"/>
<path d="M2460.97 250.686V241.186L2449.15 233.305C2445.96 237.464 2441.03 239.944 2435.64 239.944H2427.77V250.686C2427.77 259.855 2435.2 267.287 2444.37 267.287C2453.54 267.287 2460.97 259.855 2460.97 250.686Z" fill="#76CEDC"/>
<path d="M2445.66 227.891C2446.45 226.315 2448.44 225.786 2449.9 226.764L2460.89 234.084H2464.88V227.248C2464.88 219.171 2458.31 212.6 2450.23 212.6H2438.51C2430.44 212.6 2423.87 219.171 2423.87 227.248V234.084H2435.64C2439.91 234.084 2443.75 231.711 2445.66 227.891Z" fill="#76CEDC"/>
</g>
</g>
<path d="M2384.49 411.992V403.424H2388.43C2392.89 403.424 2395.13 400.16 2395.13 396.352C2395.13 392.578 2392.89 389.314 2388.43 389.314H2380.72V411.992H2384.49ZM2391.29 396.352C2391.29 398.596 2390 400.092 2387.99 400.092H2384.49V392.612H2387.99C2390 392.612 2391.29 394.108 2391.29 396.352Z" fill="#292B2B"/>
<path d="M2410.27 411.992V400.772C2410.27 396.76 2407.75 395.162 2404.32 395.162C2402.21 395.162 2399.96 395.876 2398.3 397.542L2399.62 399.922C2400.88 398.63 2402.24 398.052 2403.7 398.052C2405.74 398.052 2406.9 399.208 2406.9 401.18V403.56C2405.95 402.234 2404.25 401.588 2402.58 401.588C2399.93 401.588 2397.55 403.39 2397.55 406.926C2397.55 410.428 2399.93 412.4 2402.58 412.4C2404.25 412.4 2405.91 411.686 2406.9 410.326V411.992H2410.27ZM2406.9 408.252C2406.25 409.374 2405.03 410.054 2403.81 410.054C2402.04 410.054 2400.95 408.762 2400.95 406.994C2400.95 405.226 2402.04 403.934 2403.81 403.934C2405.03 403.934 2406.25 404.614 2406.9 405.77V408.252Z" fill="#292B2B"/>
<path d="M2419.71 412.4C2421.11 412.4 2422.06 412.026 2422.67 411.414L2421.85 408.864C2421.62 409.17 2421.11 409.408 2420.56 409.408C2419.68 409.408 2419.3 408.728 2419.3 407.606V398.528H2422.02V395.57H2419.3V391.082H2415.9V395.57H2413.76V398.528H2415.9V408.32C2415.9 411.006 2417.13 412.4 2419.71 412.4Z" fill="#292B2B"/>
<path d="M2427.64 392.85C2428.8 392.85 2429.75 391.898 2429.75 390.742C2429.75 389.552 2428.8 388.6 2427.64 388.6C2426.48 388.6 2425.5 389.552 2425.5 390.742C2425.5 391.898 2426.48 392.85 2427.64 392.85ZM2429.34 411.992V395.57H2425.94V411.992H2429.34Z" fill="#292B2B"/>
<path d="M2433.55 403.764C2433.55 408.864 2436.41 412.4 2440.93 412.4C2443.14 412.4 2445.21 411.482 2446.61 409.884L2444.97 407.844C2444.02 408.966 2442.56 409.612 2441.27 409.612C2438.62 409.612 2437.12 407.572 2436.98 404.886H2447.42V403.9C2447.42 398.936 2445.04 395.162 2440.59 395.162C2436.2 395.162 2433.55 399.004 2433.55 403.764ZM2440.55 397.916C2443.17 397.916 2444.09 400.432 2444.12 402.472H2436.95C2437.05 400.5 2438 397.916 2440.55 397.916Z" fill="#292B2B"/>
<path d="M2463.97 411.992V399.616C2463.97 396.794 2462.61 395.162 2459.65 395.162C2457.61 395.162 2455.77 396.454 2454.89 397.78V395.57H2451.49V411.992H2454.89V400.432C2455.5 399.276 2456.76 398.154 2458.22 398.154C2459.68 398.154 2460.57 398.868 2460.57 400.806V411.992H2463.97Z" fill="#292B2B"/>
<path d="M2473.43 412.4C2474.82 412.4 2475.78 412.026 2476.39 411.414L2475.57 408.864C2475.33 409.17 2474.82 409.408 2474.28 409.408C2473.4 409.408 2473.02 408.728 2473.02 407.606V398.528H2475.74V395.57H2473.02V391.082H2469.62V395.57H2467.48V398.528H2469.62V408.32C2469.62 411.006 2470.85 412.4 2473.43 412.4Z" fill="#292B2B"/>
</g>
<defs>
<filter id="filter0_d_94_4736" x="19" y="138" width="266" height="265.254" filterUnits="userSpaceOnUse" color-interpolation-filters="sRGB">
<feFlood flood-opacity="0" result="BackgroundImageFix"/>
<feColorMatrix in="SourceAlpha" type="matrix" values="0 0 0 0 0 0 0 0 0 0 0 0 0 0 0 0 0 0 127 0" result="hardAlpha"/>
<feMorphology radius="5" operator="erode" in="SourceAlpha" result="effect1_dropShadow_94_4736"/>
<feOffset dy="11"/>
<feGaussianBlur stdDeviation="24"/>
<feComposite in2="hardAlpha" operator="out"/>
<feColorMatrix type="matrix" values="0 0 0 0 0 0 0 0 0 0 0 0 0 0 0 0 0 0 0.17 0"/>
<feBlend mode="normal" in2="BackgroundImageFix" result="effect1_dropShadow_94_4736"/>
<feBlend mode="normal" in="SourceGraphic" in2="effect1_dropShadow_94_4736" result="shape"/>
</filter>
<filter id="filter1_d_94_4736" x="342.5" y="138" width="266" height="266" filterUnits="userSpaceOnUse" color-interpolation-filters="sRGB">
<feFlood flood-opacity="0" result="BackgroundImageFix"/>
<feColorMatrix in="SourceAlpha" type="matrix" values="0 0 0 0 0 0 0 0 0 0 0 0 0 0 0 0 0 0 127 0" result="hardAlpha"/>
<feMorphology radius="5" operator="erode" in="SourceAlpha" result="effect1_dropShadow_94_4736"/>
<feOffset dy="11"/>
<feGaussianBlur stdDeviation="24"/>
<feComposite in2="hardAlpha" operator="out"/>
<feColorMatrix type="matrix" values="0 0 0 0 0 0 0 0 0 0 0 0 0 0 0 0 0 0 0.17 0"/>
<feBlend mode="normal" in2="BackgroundImageFix" result="effect1_dropShadow_94_4736"/>
<feBlend mode="normal" in="SourceGraphic" in2="effect1_dropShadow_94_4736" result="shape"/>
</filter>
<filter id="filter2_d_94_4736" x="666" y="138" width="266" height="266" filterUnits="userSpaceOnUse" color-interpolation-filters="sRGB">
<feFlood flood-opacity="0" result="BackgroundImageFix"/>
<feColorMatrix in="SourceAlpha" type="matrix" values="0 0 0 0 0 0 0 0 0 0 0 0 0 0 0 0 0 0 127 0" result="hardAlpha"/>
<feMorphology radius="5" operator="erode" in="SourceAlpha" result="effect1_dropShadow_94_4736"/>
<feOffset dy="11"/>
<feGaussianBlur stdDeviation="24"/>
<feComposite in2="hardAlpha" operator="out"/>
<feColorMatrix type="matrix" values="0 0 0 0 0 0 0 0 0 0 0 0 0 0 0 0 0 0 0.17 0"/>
<feBlend mode="normal" in2="BackgroundImageFix" result="effect1_dropShadow_94_4736"/>
<feBlend mode="normal" in="SourceGraphic" in2="effect1_dropShadow_94_4736" result="shape"/>
</filter>
<filter id="filter3_d_94_4736" x="989.5" y="138" width="266" height="266" filterUnits="userSpaceOnUse" color-interpolation-filters="sRGB">
<feFlood flood-opacity="0" result="BackgroundImageFix"/>
<feColorMatrix in="SourceAlpha" type="matrix" values="0 0 0 0 0 0 0 0 0 0 0 0 0 0 0 0 0 0 127 0" result="hardAlpha"/>
<feMorphology radius="5" operator="erode" in="SourceAlpha" result="effect1_dropShadow_94_4736"/>
<feOffset dy="11"/>
<feGaussianBlur stdDeviation="24"/>
<feComposite in2="hardAlpha" operator="out"/>
<feColorMatrix type="matrix" values="0 0 0 0 0 0 0 0 0 0 0 0 0 0 0 0 0 0 0.17 0"/>
<feBlend mode="normal" in2="BackgroundImageFix" result="effect1_dropShadow_94_4736"/>
<feBlend mode="normal" in="SourceGraphic" in2="effect1_dropShadow_94_4736" result="shape"/>
</filter>
<filter id="filter4_d_94_4736" x="1319.03" y="138" width="266" height="266" filterUnits="userSpaceOnUse" color-interpolation-filters="sRGB">
<feFlood flood-opacity="0" result="BackgroundImageFix"/>
<feColorMatrix in="SourceAlpha" type="matrix" values="0 0 0 0 0 0 0 0 0 0 0 0 0 0 0 0 0 0 127 0" result="hardAlpha"/>
<feMorphology radius="5" operator="erode" in="SourceAlpha" result="effect1_dropShadow_94_4736"/>
<feOffset dy="11"/>
<feGaussianBlur stdDeviation="24"/>
<feComposite in2="hardAlpha" operator="out"/>
<feColorMatrix type="matrix" values="0 0 0 0 0 0 0 0 0 0 0 0 0 0 0 0 0 0 0.17 0"/>
<feBlend mode="normal" in2="BackgroundImageFix" result="effect1_dropShadow_94_4736"/>
<feBlend mode="normal" in="SourceGraphic" in2="effect1_dropShadow_94_4736" result="shape"/>
</filter>
<filter id="filter5_d_94_4736" x="1648.55" y="138" width="266" height="266" filterUnits="userSpaceOnUse" color-interpolation-filters="sRGB">
<feFlood flood-opacity="0" result="BackgroundImageFix"/>
<feColorMatrix in="SourceAlpha" type="matrix" values="0 0 0 0 0 0 0 0 0 0 0 0 0 0 0 0 0 0 127 0" result="hardAlpha"/>
<feMorphology radius="5" operator="erode" in="SourceAlpha" result="effect1_dropShadow_94_4736"/>
<feOffset dy="11"/>
<feGaussianBlur stdDeviation="24"/>
<feComposite in2="hardAlpha" operator="out"/>
<feColorMatrix type="matrix" values="0 0 0 0 0 0 0 0 0 0 0 0 0 0 0 0 0 0 0.17 0"/>
<feBlend mode="normal" in2="BackgroundImageFix" result="effect1_dropShadow_94_4736"/>
<feBlend mode="normal" in="SourceGraphic" in2="effect1_dropShadow_94_4736" result="shape"/>
</filter>
<filter id="filter6_d_94_4736" x="1972.05" y="138" width="266" height="266" filterUnits="userSpaceOnUse" color-interpolation-filters="sRGB">
<feFlood flood-opacity="0" result="BackgroundImageFix"/>
<feColorMatrix in="SourceAlpha" type="matrix" values="0 0 0 0 0 0 0 0 0 0 0 0 0 0 0 0 0 0 127 0" result="hardAlpha"/>
<feMorphology radius="5" operator="erode" in="SourceAlpha" result="effect1_dropShadow_94_4736"/>
<feOffset dy="11"/>
<feGaussianBlur stdDeviation="24"/>
<feComposite in2="hardAlpha" operator="out"/>
<feColorMatrix type="matrix" values="0 0 0 0 0 0 0 0 0 0 0 0 0 0 0 0 0 0 0.17 0"/>
<feBlend mode="normal" in2="BackgroundImageFix" result="effect1_dropShadow_94_4736"/>
<feBlend mode="normal" in="SourceGraphic" in2="effect1_dropShadow_94_4736" result="shape"/>
</filter>
<filter id="filter7_d_94_4736" x="2295.55" y="140.6" width="266" height="266" filterUnits="userSpaceOnUse" color-interpolation-filters="sRGB">
<feFlood flood-opacity="0" result="BackgroundImageFix"/>
<feColorMatrix in="SourceAlpha" type="matrix" values="0 0 0 0 0 0 0 0 0 0 0 0 0 0 0 0 0 0 127 0" result="hardAlpha"/>
<feMorphology radius="5" operator="erode" in="SourceAlpha" result="effect1_dropShadow_94_4736"/>
<feOffset dy="11"/>
<feGaussianBlur stdDeviation="24"/>
<feComposite in2="hardAlpha" operator="out"/>
<feColorMatrix type="matrix" values="0 0 0 0 0 0 0 0 0 0 0 0 0 0 0 0 0 0 0.17 0"/>
<feBlend mode="normal" in2="BackgroundImageFix" result="effect1_dropShadow_94_4736"/>
<feBlend mode="normal" in="SourceGraphic" in2="effect1_dropShadow_94_4736" result="shape"/>
</filter>
<radialGradient id="paint0_radial_94_4736" cx="0" cy="0" r="1" gradientUnits="userSpaceOnUse" gradientTransform="translate(1268.21 292.073) rotate(90) scale(292.927 1445.11)">
<stop stop-color="#FF0000"/>
<stop offset="1" stop-color="#D9D9D9" stop-opacity="0"/>
</radialGradient>
<clipPath id="clip0_94_4736">
<rect width="2581" height="585" fill="white"/>
</clipPath>
<clipPath id="clip1_94_4736">
<rect width="100" height="100" fill="white" transform="translate(425.5 210)"/>
</clipPath>
<clipPath id="clip2_94_4736">
<rect width="100" height="100" fill="white" transform="translate(749 210)"/>
</clipPath>
<clipPath id="clip3_94_4736">
<rect width="100" height="100" fill="white" transform="translate(1072.5 210)"/>
</clipPath>
<clipPath id="clip4_94_4736">
<rect width="100" height="100" fill="white" transform="translate(1402.03 210)"/>
</clipPath>
<clipPath id="clip5_94_4736">
<rect width="100" height="100" fill="white" transform="translate(1731.55 210)"/>
</clipPath>
<clipPath id="clip6_94_4736">
<rect width="100" height="100" fill="white" transform="translate(2055.05 210)"/>
</clipPath>
<clipPath id="clip7_94_4736">
<rect width="100" height="100" fill="white" transform="translate(2378.55 212.6)"/>
</clipPath>
</defs>
</svg>
